<svg width="535" height="158" viewBox="0 0 535 158" fill="none" xmlns="http://www.w3.org/2000/svg">
<g clip-path="url(#clip0_454_2)">
<path d="M181.6 78.93H90.7998L136.2 0.290039L181.6 78.93Z" fill="#EDE942"/>
<path d="M181.6 78.9302L136.2 157.57L90.7998 78.9302H181.6Z" fill="#ACF62D"/>
<path d="M136.2 0.290039L90.8 78.93H0L45.4 0.290039H136.2Z" fill="#4166B0"/>
<path d="M136.2 157.57H45.4L0 78.9302H90.8L136.2 157.57Z" fill="#FAA54C"/>
<path d="M240.376 48.6H251.104V80.064C251.104 82.944 250.696 85.536 249.88 87.84C249.064 90.144 247.96 92.04 246.568 93.528C245.176 95.016 243.52 96.264 241.6 97.272C239.68 98.28 237.664 98.976 235.552 99.36C233.488 99.792 231.304 100.008 229 100.008C226.696 100.008 224.488 99.792 222.376 99.36C220.312 98.976 218.32 98.28 216.4 97.272C214.48 96.264 212.824 95.016 211.432 93.528C210.04 92.04 208.936 90.144 208.12 87.84C207.304 85.536 206.896 82.944 206.896 80.064V48.6H217.696V79.488C217.696 86.688 221.464 90.288 229 90.288C236.584 90.288 240.376 86.688 240.376 79.488V48.6ZM268.331 69.48C271.163 65.448 275.339 63.432 280.859 63.432C286.091 63.432 290.195 65.232 293.171 68.832C296.195 72.384 297.707 76.68 297.707 81.72C297.707 86.76 296.195 91.08 293.171 94.68C290.195 98.232 286.091 100.008 280.859 100.008C276.107 100.008 272.315 98.448 269.483 95.328V114.84H259.475V64.44H268.331V69.48ZM285.035 88.776C286.667 86.856 287.483 84.504 287.483 81.72C287.483 78.936 286.667 76.608 285.035 74.736C283.403 72.816 281.195 71.856 278.411 71.856C276.347 71.856 274.499 72.408 272.867 73.512C271.283 74.616 270.131 75.984 269.411 77.616V85.824C270.131 87.456 271.283 88.824 272.867 89.928C274.499 91.032 276.347 91.584 278.411 91.584C281.195 91.584 283.403 90.648 285.035 88.776ZM304.552 54.216C309.4 50.76 315.016 49.032 321.4 49.032C326.632 49.032 330.904 50.256 334.216 52.704C337.576 55.152 339.256 58.752 339.256 63.504C339.256 67.2 338.056 70.368 335.656 73.008C333.304 75.6 330.088 78.096 326.008 80.496C321.208 83.328 318.256 85.248 317.152 86.256C315.856 87.504 315.184 88.68 315.136 89.784L339.616 89.712V99H302.896V94.176C302.896 91.536 303.28 89.16 304.048 87.048C304.864 84.936 306.16 83.04 307.936 81.36C309.76 79.68 311.272 78.432 312.472 77.616C313.672 76.752 315.496 75.6 317.944 74.16C318.088 74.064 318.208 73.992 318.304 73.944C318.4 73.896 318.52 73.824 318.664 73.728C318.808 73.632 318.928 73.56 319.024 73.512C319.312 73.32 319.912 72.984 320.824 72.504C321.784 71.976 322.408 71.616 322.696 71.424C322.984 71.232 323.488 70.92 324.208 70.488C324.928 70.008 325.432 69.648 325.72 69.408C326.008 69.12 326.368 68.736 326.8 68.256C327.28 67.776 327.616 67.344 327.808 66.96C328 66.576 328.168 66.12 328.312 65.592C328.456 65.064 328.528 64.512 328.528 63.936C328.528 62.16 327.808 60.816 326.368 59.904C324.928 58.944 322.936 58.464 320.392 58.464C314.92 58.464 309.64 60.408 304.552 64.296V54.216ZM381.714 48.6H392.514V99H381.714V78.696H359.106V99H348.306V48.6H359.106V68.904H381.714V48.6ZM399.351 81.72C399.351 78.6 399.903 75.84 401.007 73.44C402.111 70.992 403.551 69.072 405.327 67.68C407.151 66.288 409.047 65.232 411.015 64.512C413.031 63.792 415.071 63.432 417.135 63.432C420.591 63.432 423.567 64.08 426.063 65.376C428.607 66.672 430.479 68.352 431.679 70.416C432.879 72.432 433.695 74.736 434.127 77.328C434.607 79.872 434.487 82.416 433.767 84.96H409.431C409.959 87.36 411.351 89.16 413.607 90.36C415.863 91.512 418.527 92.088 421.599 92.088C425.391 92.088 428.871 91.392 432.039 90V97.848C428.631 99.288 424.407 100.008 419.367 100.008C413.607 100.008 408.831 98.4 405.039 95.184C401.247 91.968 399.351 87.48 399.351 81.72ZM424.767 78.48C425.007 76.896 424.551 75.264 423.399 73.584C422.247 71.904 420.279 71.064 417.495 71.064C415.287 71.064 413.391 71.736 411.807 73.08C410.223 74.376 409.407 76.176 409.359 78.48H424.767ZM471.558 90.072C471.558 91.608 472.374 92.376 474.006 92.376C474.678 92.376 475.302 92.28 475.878 92.088V98.64C474.054 99.312 472.206 99.648 470.334 99.648C466.686 99.648 464.142 98.352 462.702 95.76C459.102 98.592 454.95 100.008 450.246 100.008C446.838 100.008 443.958 99.072 441.606 97.2C439.302 95.28 438.15 92.688 438.15 89.424C438.15 86.688 438.966 84.408 440.598 82.584C442.23 80.76 444.126 79.536 446.286 78.912C448.446 78.24 450.798 77.904 453.342 77.904C456.174 77.904 458.91 78.216 461.55 78.84V77.616C461.55 75.84 460.854 74.424 459.462 73.368C458.07 72.312 456.054 71.784 453.414 71.784C449.574 71.784 445.494 72.648 441.174 74.376V65.736C445.782 64.2 450.246 63.432 454.566 63.432C465.894 63.432 471.558 68.64 471.558 79.056V90.072ZM455.646 83.88C453.582 83.88 451.854 84.264 450.462 85.032C449.07 85.8 448.374 87 448.374 88.632C448.374 89.88 448.878 90.912 449.886 91.728C450.942 92.496 452.238 92.88 453.774 92.88C456.798 92.88 459.39 91.944 461.55 90.072V84.672C459.342 84.144 457.374 83.88 455.646 83.88ZM489.463 69.624C490.759 67.608 492.631 66.048 495.079 64.944C497.527 63.84 500.311 63.432 503.431 63.72V73.44C500.695 72.96 498.127 73.2 495.727 74.16C493.375 75.12 491.671 76.632 490.615 78.696V99H480.607V64.44H489.463V69.624ZM511.324 54.36L521.26 51.984V64.44H532.204V72.864H521.26V86.4C521.26 89.856 523.108 91.584 526.804 91.584C529.012 91.584 531.1 91.2 533.068 90.432V98.496C530.188 99.504 527.092 100.008 523.78 100.008C520.132 100.008 517.132 99.072 514.78 97.2C512.476 95.328 511.324 92.376 511.324 88.344V72.864H505.492V64.44H511.324V54.36Z" fill="black" fill-opacity="0.62"/>
</g>
<defs>
<clipPath id="clip0_454_2">
<rect width="535" height="158" fill="white"/>
</clipPath>
</defs>
</svg>
