<svg width="487" height="452" viewBox="0 0 487 452" fill="none" xmlns="http://www.w3.org/2000/svg">
<path d="M322.188 150.709C322.188 150.709 310.156 152.827 304.686 163.492C299.216 174.158 317.267 168.283 317.267 168.283C317.267 168.283 336.049 158.807 322.188 150.709Z" fill="#F4BA92"/>
<path d="M476.302 267.292C471.315 217.722 430.281 183.464 403.225 169.309C391.193 163.015 367.934 151.526 350.159 156.454C332.383 161.381 336.435 213.31 350.636 223.878C302.771 205.279 255.79 206.37 255.79 206.37H204.677C204.677 206.37 124.823 203.638 57.6475 257.796C33.9833 276.879 18.2595 301.7 12.1033 326.592C0.816978 372.411 21.952 419.053 86.0954 433.287C157.767 453.461 356.354 452.03 348.812 405.662C341.774 362.53 329.259 320.109 347.923 319.293C379.881 318.116 483.281 336.513 476.302 267.292ZM61.2026 337.741C56.9613 337.539 52.7918 337.193 48.6223 336.578C52.7264 337.055 56.8959 337.539 61.2026 337.741ZM48.2825 336.513C47.3218 336.376 46.3219 336.238 45.407 336.101C46.2958 336.166 47.3218 336.376 48.2825 336.513ZM30.2909 332.749C30.9445 332.886 31.598 333.088 32.2515 333.226C31.5769 333.171 30.9151 333.01 30.2909 332.749ZM15.4559 327.965C15.7958 328.102 16.2075 328.233 16.5473 328.37C16.1636 328.296 15.7948 328.159 15.4559 327.965ZM18.8739 329.193C19.2856 329.331 19.7627 329.468 20.1809 329.605C19.7284 329.529 19.2886 329.39 18.8739 329.193ZM22.429 330.5C22.8408 330.638 23.3178 330.775 23.7361 330.912C23.2525 330.768 22.7689 330.631 22.429 330.494V330.5ZM26.873 331.866C27.3566 332.004 27.9709 332.141 28.448 332.278C27.9709 332.134 27.4481 331.99 26.873 331.86V331.866ZM44.9952 335.97C42.1916 335.559 39.388 334.944 36.6563 334.395C39.388 334.938 42.2635 335.552 44.9952 335.964V335.97ZM35.6956 334.193C34.944 334.056 34.2578 333.853 33.5063 333.716C34.2457 333.824 34.9771 333.981 35.6956 334.186V334.193Z" fill="#F36B64"/>
<path d="M227.93 261.357L227.518 262.514C221.362 278.656 201.05 284.401 187.718 273.461C179.876 267.102 172.537 258.684 168.707 247.973C157.905 218.087 193.737 204.612 193.737 204.612C193.737 204.612 240.033 195.587 256.927 208.99C264.854 215.212 269.344 227.524 269.847 240.928C270.5 262.88 244.817 275.186 227.93 261.377V261.357Z" fill="white"/>
<path d="M386.788 320.574C371.058 320.234 356.837 319.07 348.08 319.482C340.146 319.822 337.826 327.619 338.369 339.859L338.029 339.794C338.029 339.794 334.265 310.869 330.919 302.543C327.573 294.217 336.114 308.353 347.054 313.96C357.478 319.28 384.736 320.508 386.788 320.574Z" fill="#D14747"/>
<path d="M236.478 419.19C275.787 402.369 316.489 385.272 327.416 339.722C290.76 356.89 256.43 373.986 217.316 391.082C205.141 395.938 192.835 403.257 180.66 410.642C153.513 420.831 126.365 421.582 98.3945 423.562L86.0952 433.287C148.258 450.867 306.091 452.03 341.859 421.798C320.73 434.725 280.035 439.306 240.647 439.306C229.23 439.365 226.015 423.7 236.478 419.19Z" fill="#D14747"/>
<path d="M386.926 320.573C392.808 266.076 385.214 238.648 385.214 238.648L339.33 197.417C336.716 179.634 314.777 155.016 324.011 148.723C333.376 142.364 352.871 144.076 374.332 152.212C434.725 175.19 471.453 217.794 476.419 267.442C481.367 317.365 428.503 321.599 386.926 320.573Z" fill="#F4BA92"/>
<path d="M130.051 224.767C124.51 234.204 132.443 253.077 144.07 246.987C147.488 245.144 153.781 240.83 160.617 235.498C154.807 230.093 149.951 220.467 147.69 211.154C139.645 215.807 132.254 220.937 130.051 224.767Z" fill="#3793C9"/>
<path d="M201.397 203.704C203.854 196.044 184.843 192.352 172.328 198.508C172.328 198.508 159.408 204.39 147.71 211.226C149.971 220.525 154.827 230.178 160.636 235.576C166.908 230.778 172.912 225.64 178.621 220.185C187.17 211.775 200.299 207.056 201.397 203.704Z" fill="#F4BA92"/>
<path d="M75.4298 337.742C75.4298 337.742 69.6853 331.448 68.8945 324.75" stroke="#992B2B" stroke-width="4.9" stroke-linecap="round" stroke-linejoin="round"/>
<path d="M233.949 152.415C252.529 152.415 267.592 137.352 267.592 118.771C267.592 100.191 252.529 85.1279 233.949 85.1279C215.368 85.1279 200.305 100.191 200.305 118.771C200.305 137.352 215.368 152.415 233.949 152.415Z" fill="#564239"/>
<path d="M254.463 225.113C254.463 225.113 258.841 243.915 240.739 256.482C224.185 267.971 193.822 260.652 179.118 240.203C176.724 236.805 175.479 232.732 175.563 228.577L176.249 194.456C176.295 194.476 255.012 190.176 254.463 225.113Z" fill="#F4BA92"/>
<path d="M197.77 219.911C213.637 237.079 233.713 239.948 254.254 236.667C255.089 232.844 255.16 228.892 254.463 225.041C254.551 222.297 254.038 219.567 252.96 217.042C236.752 228.322 216.441 230.309 197.77 219.911Z" fill="#F0998B"/>
<path d="M263.423 133.064C279.63 185.928 273.062 227.028 229.387 230.04C203.194 231.89 171.668 212.121 158.807 168.492C145.945 124.862 151.415 92.2448 187.392 81.6446C223.551 70.9007 250.156 89.5719 263.423 133.064Z" fill="#F4BA92"/>
<path d="M175.752 223.198C175.752 223.198 180.673 205.416 170.073 182.503C164.74 171.014 180.608 173.955 177.87 142.566C175.818 119.458 193.94 132.378 232.988 123.216C257.404 117.471 261.436 57.7716 210.899 67.7575C178.223 74.2535 139.848 86.2195 133.901 125.405C128.908 157.885 170.21 211.023 175.752 223.198Z" fill="#564239"/>
<path d="M183.477 167.119C186.83 176.079 182.791 185.79 174.589 188.868C166.387 191.947 157.009 187.222 153.676 178.268C150.343 169.315 154.33 159.597 162.564 156.519C170.799 153.441 180.125 158.231 183.477 167.119Z" fill="#F4BA92"/>
<path d="M158.859 168.485C158.859 168.485 162.074 163.629 167.544 168.694C171.099 173.341 166.316 176.693 166.316 176.693C166.953 177.671 167.86 178.444 168.927 178.917C169.994 179.39 171.175 179.544 172.328 179.36" stroke="#E09C6E" stroke-width="3" stroke-linecap="round" stroke-linejoin="round"/>
<path d="M239.693 150.709C242.914 157.669 246.59 164.409 250.698 170.884C251.211 171.703 251.551 172.618 251.697 173.573C251.843 174.528 251.792 175.503 251.547 176.438C251.302 177.373 250.869 178.248 250.273 179.009C249.678 179.77 248.933 180.401 248.084 180.863L244.869 182.503" stroke="#E09C6E" stroke-width="2" stroke-linecap="round" stroke-linejoin="round"/>
<path d="M243.523 139.423C244.281 137.967 245.368 136.708 246.697 135.746C248.027 134.784 249.563 134.146 251.182 133.881" stroke="#564239" stroke-width="4.9" stroke-linecap="round" stroke-linejoin="round"/>
<path d="M216.317 146.193C214.379 145.004 212.202 144.258 209.942 144.01C207.683 143.761 205.396 144.016 203.246 144.756" stroke="#564239" stroke-width="4.9" stroke-linecap="round" stroke-linejoin="round"/>
<path d="M217.192 160.283C217.192 160.283 211.86 157.27 209.35 162.401" stroke="#473135" stroke-width="2" stroke-linecap="round" stroke-linejoin="round"/>
<path d="M213.84 163.702C213.8 164.193 213.619 164.662 213.317 165.052C213.015 165.441 212.607 165.734 212.141 165.895C211.675 166.056 211.172 166.078 210.695 165.958C210.217 165.838 209.784 165.581 209.45 165.219C209.115 164.857 208.894 164.406 208.812 163.92C208.73 163.434 208.792 162.935 208.989 162.483C209.186 162.032 209.511 161.647 209.924 161.377C210.336 161.108 210.818 160.964 211.311 160.963C212.677 160.898 213.84 162.198 213.84 163.702Z" fill="#473135"/>
<path d="M252.685 149.612C252.685 149.612 248.718 146.605 246.803 151.736" stroke="#473135" stroke-width="2" stroke-linecap="round" stroke-linejoin="round"/>
<path d="M251.182 152.552C251.145 153.045 250.965 153.517 250.664 153.91C250.363 154.302 249.954 154.598 249.487 154.762C249.02 154.925 248.516 154.949 248.035 154.83C247.555 154.711 247.12 154.455 246.784 154.092C246.447 153.729 246.224 153.277 246.141 152.789C246.058 152.301 246.119 151.8 246.317 151.346C246.514 150.893 246.84 150.507 247.254 150.236C247.668 149.965 248.152 149.82 248.646 149.82C248.995 149.825 249.339 149.9 249.657 150.042C249.976 150.183 250.262 150.388 250.499 150.643C250.736 150.899 250.919 151.199 251.036 151.528C251.154 151.856 251.203 152.204 251.182 152.552Z" fill="#473135"/>
<path d="M244.418 199.469C244.708 196.311 244.523 193.128 243.869 190.025C241.255 191.261 236.824 191.986 229.577 190.712C220.277 189.071 220.068 195.286 223.695 200.9C230.119 198.168 237.707 199.057 244.418 199.469Z" fill="#CC4744"/>
<path d="M223.551 200.9C226.695 205.756 232.786 210.049 238.582 208.017C242.503 206.645 243.987 203.089 244.399 199.521C237.707 199.057 230.119 198.168 223.551 200.9Z" fill="#F97D7C"/>
<path d="M210.696 182.778C210.572 184.751 209.683 186.598 208.219 187.927C206.754 189.256 204.83 189.962 202.854 189.895C201.881 189.868 200.924 189.648 200.037 189.246C199.15 188.845 198.353 188.271 197.691 187.558C197.029 186.845 196.515 186.007 196.181 185.093C195.847 184.179 195.698 183.208 195.744 182.235C195.873 180.258 196.761 178.406 198.222 177.067C199.683 175.727 201.604 175.004 203.586 175.047C205.542 175.161 207.378 176.032 208.705 177.474C210.031 178.917 210.745 180.819 210.696 182.778Z" fill="#F99085"/>
<path d="M271.422 174.576C270.149 175.356 268.672 175.737 267.181 175.667C266.21 175.637 265.256 175.414 264.373 175.011C263.489 174.608 262.695 174.034 262.036 173.321C261.378 172.608 260.867 171.771 260.535 170.859C260.203 169.947 260.056 168.978 260.103 168.008C260.184 166.847 260.526 165.719 261.104 164.709C261.683 163.699 262.482 162.833 263.443 162.175C264.403 161.518 265.5 161.086 266.651 160.912C267.802 160.738 268.977 160.827 270.089 161.172C270.736 165.891 271.213 170.263 271.422 174.576Z" fill="#F99085"/>
<path d="M152.925 60.1245C169.812 58.0006 186.294 51.0928 198.672 40.29C196.142 37.8981 193.613 35.5062 191.012 33.1797C180.212 39.2766 168.172 42.8513 155.794 43.6361C154.827 48.6094 153.801 54.1448 152.925 60.1245Z" fill="#3793C9"/>
<path d="M155.853 43.6163C168.228 42.8204 180.266 39.2465 191.071 33.1599C178.144 21.1939 166.93 11.0708 165.584 11.0708C163.78 11.0643 159.819 23.3048 155.853 43.6163Z" fill="#FFDF5A"/>
<path d="M152.925 60.1244C151.827 66.8949 150.736 74.2797 149.709 82.1416C173.302 78.6518 196.005 70.4501 215.356 56.0856C210.232 51.2299 204.488 45.7599 198.743 40.3618C186.215 51.2038 169.799 58.0462 152.925 60.1244Z" fill="#F36B64"/>
<path d="M229.387 69.4634C226.172 66.3853 221.244 61.6211 215.363 56.0596C195.946 70.3522 173.308 78.6258 149.716 82.1156C149.239 85.8799 148.755 89.7749 148.35 93.6764C148.004 97.1597 147.527 100.715 147.252 104.407C147.252 104.407 203.259 104.407 233.008 72.9532C232.923 72.9532 231.622 71.6527 229.387 69.4634Z" fill="#FFDF5A"/>
<path d="M77.1159 327.553C75.75 331.474 74.2469 335.487 72.3975 339.519C72.3975 339.519 108.302 378.907 147.148 374.94C185.993 370.973 176.824 353.06 176.824 353.06C177.666 343.464 177.826 333.82 177.301 324.201C147.095 342.186 110.446 346.63 77.1159 327.553Z" fill="#313163"/>
<path d="M145.736 236.805C141.752 233.925 137.342 231.687 132.665 230.172C115.229 225.113 89.8595 250.431 86.5723 265.527C86.278 267.242 86.188 268.986 86.3044 270.723C86.6442 276.742 87.1932 298.968 77.155 327.481C110.531 346.564 147.115 342.048 177.412 324.214C176.448 307.24 174.016 290.382 170.145 273.827C166.649 259.031 158.153 245.627 145.736 236.805Z" fill="#3793C9"/>
<path d="M136.841 266.076C129.32 264.283 121.99 261.764 114.955 258.554L104.218 287.89C104.218 287.89 115.432 292.4 131.574 293.36C136.076 285.017 137.914 275.495 136.841 266.076Z" fill="#3793C9"/>
<path d="M197.155 275.65C200.024 271.683 194.28 273.801 194.28 273.801C194.28 273.801 199.07 269.226 199.887 265.729C201.259 260.194 196.332 264.161 196.332 264.161C196.332 264.161 199.41 260.946 198.868 259.305C197.907 256.293 193.639 259.508 193.639 259.508C193.639 259.508 195.829 256.704 193.777 255.201C191.725 253.698 182.902 260.057 181.745 259.985C180.589 259.913 184.817 258.024 183.451 255.816C182.333 253.966 174.491 257.39 170.57 261.972C167.649 265.36 163.534 267.49 159.081 267.919C154.023 268.396 146.566 268.331 136.789 266.004C137.85 275.394 136.039 284.884 131.594 293.223C143.011 293.877 156.898 292.883 171.054 287.27C172.451 286.703 173.891 286.247 175.36 285.904C180.811 284.812 193.94 280.022 197.155 275.65Z" fill="#F4BA92"/>
<path d="M131.574 293.361C131.574 293.361 115.236 292.4 102.819 286.244" stroke="#313163" stroke-width="3" stroke-linecap="round" stroke-linejoin="round"/>
<path d="M193.6 259.508C193.6 259.508 189.026 263.429 184.98 264.978" stroke="#F0998B" stroke-width="1.71" stroke-linecap="round" stroke-linejoin="round"/>
<path d="M196.332 264.161C196.332 264.161 192.502 269.389 187.307 271.2" stroke="#F0998B" stroke-width="1.71" stroke-linecap="round" stroke-linejoin="round"/>
<path d="M194.28 273.827C192.534 274.867 190.704 275.759 188.81 276.493" stroke="#F0998B" stroke-width="1.71" stroke-linecap="round" stroke-linejoin="round"/>
<path d="M140.188 242.274C140.188 242.274 145.729 254.24 132.999 257.796C120.268 261.351 111.184 255.541 104.139 250.006C97.0942 244.47 117.471 248.431 122.804 247.607C128.137 246.784 137.521 242.751 140.188 242.274Z" fill="#F0998B"/>
<path d="M126.856 184.418C147.507 209.108 153.801 234.615 133.901 247.065C124.392 252.947 99.1594 258.757 84.7949 236.805C65.7839 220.467 58.8761 207.331 75.2208 190.234C91.7027 173.001 109.282 164.035 126.856 184.418Z" fill="#F4BA92"/>
<path d="M92.3887 223.263C92.3556 220.085 93.0609 216.941 94.4489 214.081C95.837 211.221 97.87 208.722 100.388 206.782L100.597 206.644C120.856 190.783 107.132 163.701 83.2263 173.55C79.9587 174.857 76.3185 176.007 73.1032 178.406C47.6615 197.756 64.8949 225.244 64.8949 234.341C64.9493 236.862 64.6277 239.377 63.9408 241.804C62.4377 247.202 81.5859 267.723 97.3816 254.659C99.8389 252.607 95.9439 238.321 89.8596 239.138C83.7752 239.955 92.3168 227.923 92.3887 223.819V223.263Z" fill="#564239"/>
<path d="M106.956 213.827C106.956 213.827 103.192 212.461 101.486 216.29" stroke="#473135" stroke-width="2" stroke-linecap="round" stroke-linejoin="round"/>
<path d="M122.954 202.403C122.954 202.403 122.477 198.096 125.758 198.234" stroke="#473135" stroke-width="2" stroke-linecap="round" stroke-linejoin="round"/>
<path d="M130.548 216.833C133.352 217.794 133.626 220.186 132.463 221.761" stroke="#E09C6E" stroke-width="2" stroke-linecap="round" stroke-linejoin="round"/>
<path d="M111.06 221.009C111.06 221.009 107.845 219.369 107.093 225.179" stroke="#473135" stroke-width="2" stroke-linecap="round" stroke-linejoin="round"/>
<path d="M131.849 204.867C131.849 204.867 128.633 203.227 127.882 209.036" stroke="#473135" stroke-width="2" stroke-linecap="round" stroke-linejoin="round"/>
<path d="M124.392 242.275C126.718 243.235 129.385 243.235 131.581 241.111C132.462 240.257 133.123 239.2 133.504 238.033C133.886 236.866 133.977 235.623 133.77 234.413C130.071 236.262 126.858 238.955 124.392 242.275Z" fill="#F97D7C"/>
<path d="M120.288 236.327C120.033 236.809 119.917 237.352 119.954 237.896C119.991 238.44 120.179 238.963 120.497 239.405C121.53 240.689 122.882 241.679 124.418 242.274C126.894 238.946 130.129 236.257 133.855 234.432C133.515 231.217 132.548 229.093 131.051 229.093C124.869 229.073 121.588 233.798 120.288 236.327Z" fill="#CC4744"/>
<path d="M97.6562 230.041C101.074 234.282 100.865 240.164 97.1072 243.17C93.3495 246.176 87.5331 245.359 84.1152 241.118C80.6972 236.877 80.8998 230.995 84.6576 227.989C88.4153 224.982 94.2317 225.865 97.6562 230.041Z" fill="#F4BA92"/>
<path d="M101.551 191.94C101.551 191.94 115.367 194.476 126.307 189.209C129.725 187.634 128.973 183.876 128.359 180.183C125.83 166.296 95.8785 162.336 75.6323 176.694C51.8375 193.443 101.551 191.94 101.551 191.94Z" fill="#564239"/>
<path d="M86.7815 234.413C86.7815 234.413 87.2586 230.583 91.3562 232.289C94.2251 234.615 91.7679 237.419 91.7679 237.419C92.3132 237.938 92.9948 238.29 93.7331 238.436C94.4713 238.582 95.2359 238.515 95.9374 238.242" stroke="#E09C6E" stroke-width="3" stroke-linecap="round" stroke-linejoin="round"/>
<path d="M136.587 197.685C136.587 197.685 136.587 178.334 122.157 174.027C111.217 170.759 126.398 189.208 126.398 189.208C126.398 189.208 130.751 191.6 136.587 197.685Z" fill="#564239"/>
<path d="M393.559 243.301C393.559 243.301 405.185 245.215 409.832 246.928C414.478 248.64 416.06 216.696 401.695 199.737C387.331 182.778 358.269 185.653 358.269 185.653L357.929 226.825L393.559 243.301Z" fill="#FFDF5A"/>
<path d="M401.696 199.737C395.814 192.836 387.54 189.209 379.744 187.32C381.925 188.264 384.049 189.338 386.102 190.535C404.022 203.9 411.681 225.59 407.146 246.104C408.041 246.295 408.917 246.571 409.76 246.928C414.485 248.705 416.125 216.696 401.696 199.737Z" fill="#FFB85A"/>
<path d="M325.586 266.965C323.233 271.225 321.108 275.608 319.221 280.094C319.221 280.094 304.386 285.564 301.236 298.282C299.667 304.503 304.039 299.994 304.928 299.033C304.964 298.96 305.01 298.892 305.065 298.831C305.01 298.892 304.964 298.96 304.928 299.033C304.523 299.517 303.288 301.432 303.36 306.83C303.425 313.463 309.581 301.432 309.581 301.432C309.036 305.19 309.459 309.025 310.81 312.574C312.77 317.979 314.848 304.85 314.848 304.85C314.848 304.85 317.463 311.548 321.07 312.914C323.684 313.94 320.181 306.967 320.593 305.804C321.005 304.641 331.99 302.66 336.565 295.001C337.526 293.361 341.355 289.185 346.963 283.577C342.133 275.578 335.258 269.148 325.586 266.965Z" fill="#F4BA92"/>
<path d="M371.744 217.317C371.744 217.317 345.061 231.348 325.651 266.893C335.226 269.082 342.199 275.513 346.989 283.578C357.38 273.324 373.934 258.345 390.618 246.327C405.839 235.23 382.41 209.997 371.744 217.317Z" fill="#FFDF5A"/>
<path d="M260.619 259.782C258.43 278.996 263.488 293.903 267.389 297.942C271.624 302.32 271.311 297.942 271.311 297.942C271.311 297.942 273.023 300.556 274.866 300.673C277.192 300.811 276.232 297.942 276.232 297.942C276.232 297.942 278.493 301.157 279.859 299.785C281.225 298.412 279.859 295.615 279.859 295.615C279.859 295.615 282.185 299.536 283.551 297.465C284.917 295.393 282.388 288.779 283.139 286.453C283.891 284.126 285.675 290.145 287.315 289.184C288.956 288.224 287.969 281.871 285.263 277.29C284.028 275.238 284.61 269.494 287.106 262.723C278.401 257.658 270.193 256.502 260.619 259.782Z" fill="#F4BA92"/>
<path d="M299.595 202.338C299.595 202.338 274.291 216.153 264.678 242.274C262.594 247.89 261.239 253.75 260.645 259.71C270.219 256.443 278.421 257.593 287.041 262.586C290.119 254.175 296.066 244.052 305.026 237.353C321.273 225.381 313.208 192.424 299.595 202.338Z" fill="#FFDF5A"/>
<path d="M373.162 200.9C368.712 225.178 351.001 238.033 327.821 236.19C306.483 234.55 291.642 216.219 297.661 194.365C307.307 159.486 320.978 150.324 342.1 154.081C363.222 157.839 378.306 172.929 373.162 200.9Z" fill="#F4BA92"/>
<path d="M371.267 208.285C372.088 205.849 372.743 203.359 373.228 200.835C377.149 179.36 369.196 165.479 355.72 158.506C343.911 181.209 353.759 198.234 371.267 208.285Z" fill="#564239"/>
<path d="M366.817 168.283C366.817 168.283 323.188 181.824 310.405 168.832C301.51 159.8 321.345 151.598 334.134 152.552C342.819 153.167 360.595 156.454 366.817 168.283Z" fill="#564239"/>
<path d="M311.731 204.115C311.666 207.533 316.384 208.036 316.384 208.036" stroke="#E09C6E" stroke-width="2" stroke-linecap="round" stroke-linejoin="round"/>
<path d="M320.998 220.12C322.024 222.375 323.874 224.355 327.017 224.289C328.241 224.281 329.444 223.98 330.528 223.411C331.611 222.843 332.543 222.024 333.245 221.022C329.282 219.807 325.097 219.499 320.998 220.12Z" fill="#F97D7C"/>
<path d="M322.188 212.938C321.67 213.092 321.208 213.394 320.86 213.808C320.511 214.221 320.291 214.728 320.227 215.264C320.073 216.903 320.355 218.553 321.044 220.048C325.116 219.389 329.286 219.694 333.219 220.937C335.18 218.408 335.958 216.218 334.86 215.192C330.572 210.951 324.9 212.049 322.188 212.938Z" fill="#CC4744"/>
<path d="M312.385 190.712C312.385 190.712 310.424 186.268 307.392 187.705" stroke="#473135" stroke-width="2" stroke-linecap="round" stroke-linejoin="round"/>
<path d="M309.509 190.437C309.338 190.741 309.108 191.008 308.831 191.222C308.555 191.435 308.239 191.592 307.902 191.681C307.564 191.771 307.212 191.792 306.867 191.743C306.521 191.694 306.188 191.577 305.889 191.398C305.325 190.986 304.94 190.374 304.813 189.688C304.685 189.001 304.825 188.292 305.203 187.705C305.556 187.097 306.137 186.654 306.817 186.474C307.497 186.294 308.221 186.391 308.83 186.744C309.993 187.431 310.267 189.136 309.509 190.437Z" fill="#473135"/>
<path d="M340.421 198.783C340.421 198.783 338.46 194.339 335.428 195.77" stroke="#473135" stroke-width="2" stroke-linecap="round" stroke-linejoin="round"/>
<path d="M337.552 198.443C337.197 199.05 336.616 199.491 335.936 199.67C335.256 199.849 334.533 199.751 333.925 199.397C333.365 198.981 332.986 198.367 332.865 197.68C332.743 196.994 332.889 196.287 333.271 195.704C333.443 195.4 333.673 195.133 333.949 194.919C334.225 194.706 334.541 194.55 334.879 194.46C335.216 194.37 335.568 194.349 335.914 194.398C336.26 194.447 336.592 194.564 336.892 194.744C338.094 195.404 338.369 197.07 337.552 198.443Z" fill="#473135"/>
<path d="M314.64 180.523C314.64 180.523 313.332 178.562 309.856 177.647" stroke="#473135" stroke-width="2" stroke-linecap="round" stroke-linejoin="round"/>
<path d="M343.499 186.47C342.56 186.003 341.534 185.738 340.486 185.69C339.438 185.643 338.392 185.815 337.415 186.196" stroke="#473135" stroke-width="2" stroke-linecap="round" stroke-linejoin="round"/>
<path d="M373.999 186.065C363.673 193.79 362.445 208.494 364.902 220.8C369.137 214.883 371.963 208.076 373.163 200.9C374.131 196.018 374.412 191.025 373.999 186.065Z" fill="#564239"/>
<path d="M358.132 201.723C356.903 207.056 359.707 212.18 364.425 213.278C369.143 214.376 373.999 211.023 375.234 205.756C376.469 200.488 373.659 195.299 368.941 194.201C364.222 193.103 359.367 196.456 358.132 201.723Z" fill="#F4BA92"/>
<path d="M369.83 200.9C369.83 200.9 367.64 197.632 364.837 201.037C363.262 204.455 366.751 205.827 366.751 205.827C366.485 206.533 366.021 207.147 365.415 207.595C364.809 208.044 364.086 208.308 363.333 208.356" stroke="#E09C6E" stroke-width="3" stroke-linecap="round" stroke-linejoin="round"/>
<path d="M390.546 246.379C390.546 246.379 396.703 240.909 396.428 234.275" stroke="#E09C6E" stroke-width="3.27" stroke-linecap="round" stroke-linejoin="round"/>
<path d="M304.928 299.033C304.984 298.973 305.03 298.905 305.065 298.831C305.063 298.874 305.049 298.915 305.025 298.951C305.001 298.987 304.967 299.015 304.928 299.033Z" fill="#F4BA92"/>
<path d="M314.849 304.915C314.849 304.915 314.437 303 315.391 302.046L317.306 300.131" stroke="#F0998B" stroke-width="1.71" stroke-linecap="round" stroke-linejoin="round"/>
<path d="M309.581 301.497C309.927 299.531 310.94 297.745 312.45 296.439" stroke="#F0998B" stroke-width="1.71" stroke-linecap="round" stroke-linejoin="round"/>
<path d="M305.137 298.831C305.914 297.052 306.976 295.412 308.281 293.975" stroke="#F0998B" stroke-width="1.71" stroke-linecap="round" stroke-linejoin="round"/>
<path d="M279.833 295.615C278.58 293.3 277.769 290.771 277.441 288.159" stroke="#F0998B" stroke-width="1.71" stroke-linecap="round" stroke-linejoin="round"/>
<path d="M276.206 297.942C274.691 295.234 273.433 292.389 272.448 289.446" stroke="#F0998B" stroke-width="1.71" stroke-linecap="round" stroke-linejoin="round"/>
<path d="M271.285 297.942C269.653 295.818 268.445 293.399 267.729 290.818" stroke="#F0998B" stroke-width="1.71" stroke-linecap="round" stroke-linejoin="round"/>
<path d="M395.611 243.111C395.611 243.111 413.119 252.202 413.047 238.661" stroke="#BF6C66" stroke-width="3" stroke-linecap="round" stroke-linejoin="round"/>
<path d="M349.793 155.63C349.793 155.63 332.285 144.618 324.423 146.193C316.561 147.768 319.704 155.29 321.887 157.61C324.07 159.93 349.793 155.63 349.793 155.63Z" fill="#564239"/>
<path d="M331.598 145.854C331.598 145.854 327.364 146.128 329.141 148.585C330.781 151.049 340.558 150.709 345.139 152.212C349.721 153.715 352.459 148.997 352.459 148.997" fill="#F4BA92"/>
<path d="M159.61 250.62C159.61 250.62 153.454 243.098 151.115 241.183" stroke="#3B7AB5" stroke-width="4.19" stroke-linecap="round" stroke-linejoin="round"/>
<path d="M330.572 332.272C329.344 327.893 325.449 330.631 325.449 330.631C327.089 328.37 327.292 324.612 324.351 323.514C321.41 322.416 313.476 328.37 313.476 328.37C318.332 322.763 313.274 319.417 305.634 322.626C298.249 325.704 281.839 331.036 280.878 330.631C279.918 330.226 284.643 323.926 282.244 320.985C279.846 318.044 270.618 324.063 262.756 329.671C255.509 334.866 242.242 340.205 240.465 340.957C127.83 372.895 84.063 344.649 75.5868 337.742C53.1513 338.833 31.9575 334.664 12.2602 326.73C0.954268 372.548 22.0893 419.19 86.2654 433.411C140.155 445.384 203.41 427.464 247.686 407.976C306.908 383.835 327.494 351.694 329.063 346.839C330.912 341.16 328.246 340.343 328.246 340.343C328.246 340.343 331.808 336.65 330.572 332.272Z" fill="#F4BA92"/>
<path d="M313.339 328.37C313.339 328.37 298.504 338.493 293.034 340.068" stroke="#BF6C66" stroke-width="3.27" stroke-linecap="round" stroke-linejoin="round"/>
<path d="M325.377 330.631C325.377 330.631 312.306 342.46 300.896 349.845" stroke="#BF6C66" stroke-width="3.27" stroke-linecap="round" stroke-linejoin="round"/>
<path d="M328.115 340.271C322.312 347.883 315.342 354.531 307.464 359.968" stroke="#BF6C66" stroke-width="3.27" stroke-linecap="round" stroke-linejoin="round"/>
</svg>
