<svg width="48" height="48" viewBox="0 0 48 48" fill="none" xmlns="http://www.w3.org/2000/svg">
<path d="M24 4C12.954 4 4 12.954 4 24C4 35.046 12.954 44 24 44C35.046 44 44 35.046 44 24C44 12.954 35.046 4 24 4Z" fill="url(#paint0_linear_70_40)"/>
<path d="M26.707 29.3009H31.883L32.696 24.0429H26.707V21.1689C26.707 18.9849 27.421 17.0479 29.464 17.0479H32.747V12.4599C32.17 12.3819 30.95 12.2119 28.645 12.2119C23.831 12.2119 21.009 14.7539 21.009 20.5459V24.0439H16.06V29.3019H21.008V43.7539C21.988 43.8999 22.981 43.9999 24 43.9999C24.921 43.9999 25.82 43.9159 26.707 43.7959V29.3009Z" fill="white"/>
<defs>
<linearGradient id="paint0_linear_70_40" x1="9.993" y1="9.993" x2="40.615" y2="40.615" gradientUnits="userSpaceOnUse">
<stop stop-color="#2AA4F4"/>
<stop offset="1" stop-color="#007AD9"/>
</linearGradient>
</defs>
</svg>
