<svg width="454" height="594" viewBox="0 0 454 594" fill="none" xmlns="http://www.w3.org/2000/svg">
<path d="M120.315 469.615C120.158 496.139 132.382 531.871 140.042 543.04C145.125 550.463 146.253 542.618 146.197 541.449C145.455 526.805 149.17 498.685 144.601 469.615H120.315Z" fill="#B57E6F"/>
<path d="M145.597 476.993C137.429 478.838 127.97 479.712 120.824 480.113C120.475 476.625 120.305 473.121 120.315 469.615H144.601C144.987 472.08 145.318 474.544 145.597 476.993Z" fill="#3A193F"/>
<path d="M161.903 555.453H139.727C139.635 554.679 139.605 553.899 139.635 553.121H161.903C161.974 553.896 161.974 554.677 161.903 555.453Z" fill="white"/>
<path d="M161.903 553.121H139.727C139.727 553.121 139.691 552.948 139.655 552.648C139.452 551.037 139.071 545.783 142.375 543.583C145.069 541.79 151.29 542.618 156.698 544.224C162.106 545.829 161.903 553.121 161.903 553.121Z" fill="#84ABD6"/>
<path d="M73.0706 469.615C73.4924 473.574 85.803 539.076 82.55 541.906C79.297 544.737 91.3229 543.461 91.7499 541.906C92.1769 540.351 107.176 502.577 100.391 469.615H73.0706Z" fill="#B57E6F"/>
<path d="M100.381 469.615C101.109 473.184 101.604 476.796 101.865 480.428C89.727 480.586 80.6694 479.412 74.4785 478.081C73.6856 473.507 73.1519 470.393 73.0655 469.615H100.381Z" fill="#3A193F"/>
<path d="M95.6383 555.453H64.5772C64.3781 554.692 64.323 553.901 64.4145 553.121H95.5569C95.6129 553.857 95.6383 554.63 95.6383 555.453Z" fill="white"/>
<path d="M95.3587 553.121H64.5772C64.5431 552.904 64.5244 552.685 64.5213 552.465C64.4704 550.941 64.9076 547.008 70.1988 545.158C74.2244 543.753 78.3542 542.665 82.55 541.906C82.55 541.906 85.9098 543.532 91.7499 541.906C91.7499 541.906 94.9318 545.158 95.3587 553.121Z" fill="#84ABD6"/>
<path d="M67.8353 409.113C67.7234 410.937 64.0435 464.417 64.1502 471.313C64.1502 471.313 76.5777 477.359 103.639 476.724L103.212 457.314C103.212 457.314 107.883 476.714 109.896 476.775C111.908 476.836 138.451 476.622 153.308 471.104C153.308 471.104 144.942 422.41 139.838 410.383L67.8353 409.113Z" fill="#A1CBE2"/>
<path d="M103.212 457.314C102.576 454.773 100.558 447.151 100.558 447.151L95.5569 446.059" stroke="#32323C" stroke-width="2" stroke-linecap="round" stroke-linejoin="round"/>
<path d="M117.789 294.611C119.909 296.309 128.26 301.385 130.384 303.666C133.724 307.264 154.441 328.564 154.441 328.564C154.441 328.564 147.325 341.867 132.209 347.365C132.209 347.365 134.842 371.755 143.117 408.198C145.658 419.311 65.7107 411.597 64.8415 408.198C63.9723 404.799 68.0894 362.787 71.4492 346.598C71.4492 346.598 49.593 336.613 49.593 327.594C49.593 327.594 71.4492 306.115 72.7402 304.84C74.0312 303.565 82.7076 297.853 88.4969 295.445C94.2862 293.036 117.789 294.611 117.789 294.611Z" fill="#FFF4DE"/>
<path d="M132.209 347.381C134.017 350.858 136.722 353.789 140.043 355.87C143.365 357.951 147.183 359.106 151.102 359.215C166.432 359.87 191.465 340.033 191.465 340.033C191.465 340.033 199.419 339.713 201.325 337.909C203.231 336.105 205.996 332.396 206.103 331.441C206.21 330.485 205.026 323.819 205.026 323.819C205.026 323.819 203.048 324.103 202.906 327.64C202.809 329.972 198.814 331.339 197.081 330.689C195.907 330.257 195.856 329.037 197.65 327.853C200.065 326.258 198.408 324.022 198.408 324.022C197.241 324.786 195.999 325.43 194.702 325.943C193.284 326.405 190.601 328.55 190.29 328.992C189.37 330.297 188.283 333.829 188.283 333.829C188.283 333.829 169.161 337.03 155.219 339.205L150.365 334.327C150.365 334.327 142.629 343.565 132.209 347.381Z" fill="#B57E6F"/>
<path d="M152.378 336.38C152.378 336.38 143.229 345.526 140.865 356.385C137.182 354.298 134.181 351.19 132.224 347.437C132.223 347.425 132.223 347.413 132.224 347.401C142.644 343.585 150.38 334.357 150.38 334.357L152.378 336.38Z" fill="#3A193F"/>
<path d="M37.2113 401.1C35.7932 402.116 29.1245 406.562 28.1029 408.483C27.0813 410.403 27.4218 415.596 27.5946 416.14C27.7674 416.684 28.8552 419.524 28.8552 419.524C29.1359 419.421 29.3935 419.263 29.613 419.06C29.8325 418.856 30.0097 418.612 30.1344 418.34C30.2591 418.068 30.3288 417.774 30.3396 417.475C30.3503 417.176 30.3019 416.878 30.197 416.598C29.3685 414.001 31.6304 411.186 33.0942 410.068C33.7042 409.601 35.4527 409.392 35.9457 410.322C36.4387 411.252 34.1515 413.122 33.8821 413.955C33.7794 414.363 33.778 414.79 33.8781 415.198C33.9782 415.606 34.1768 415.984 34.4564 416.298C34.4564 416.298 37.9178 413.249 38.5837 412.675C39.2495 412.101 42.1417 406.781 42.5584 403.02C42.9752 399.26 40.4948 398.803 37.2113 401.1Z" fill="#B57E6F"/>
<path d="M55.8348 337.045C55.8348 337.045 48.2868 349.418 46.0402 358.615C43.7936 367.812 35.7068 401.42 35.5797 402.274C35.4527 403.127 40.6626 404.677 42.2281 403.549C43.7936 402.421 62.417 368.539 64.1452 365.343C67.0678 359.952 71.4492 346.608 71.4492 346.608C71.4492 346.608 60.1196 340.79 55.8348 337.045Z" fill="#B57E6F"/>
<path d="M71.4492 346.613L71.3983 346.766L68.8925 353.961L68.8569 354.057C68.8569 354.057 64.5721 344.362 53.5068 341.126C54.8588 338.646 55.8347 337.061 55.8347 337.061C60.1196 340.79 71.4492 346.613 71.4492 346.613Z" fill="#3A193F"/>
<path d="M113.118 282.01C113.118 282.01 112.269 288.107 117.789 294.637C117.789 294.637 101.229 303.834 88.4919 295.485C88.4919 295.485 94.8606 291.812 94.2964 282.33L113.118 282.01Z" fill="#B57E6F"/>
<path d="M113.276 285.272C109.443 289.286 102.668 293.697 92.4361 291.151C93.9092 288.448 94.5577 285.372 94.3015 282.304L113.108 281.984C113.012 283.083 113.069 284.189 113.276 285.272Z" fill="#3A193F"/>
<path d="M113.169 282.269C129.068 283.163 132.783 267.097 132.077 266.009C131.37 264.922 129.109 258.387 126.994 253.845C124.88 249.302 119.98 248.474 119.98 248.474C119.98 248.474 120.122 241.014 106.185 238.255C89.0052 234.856 72.0133 245.521 79.9019 253.819C78.2347 256.36 71.4339 264.764 81.935 277.193C85.2337 281.06 102.251 283.296 113.169 282.269Z" fill="#3A193F"/>
<path d="M119.98 248.474C119.98 248.474 122.557 246.782 126.283 248.199" stroke="#40465C" stroke-width="3" stroke-linecap="round" stroke-linejoin="round"/>
<path d="M92.5072 288.108C80.3085 283.027 81.569 264.617 83.8258 256.843C95.867 263.723 116.3 258.255 116.3 258.255C114.038 267.452 118.663 270.349 118.663 270.349C118.663 270.349 122.664 267.122 124.112 269.292C126.288 272.554 119.7 276.07 118.582 276.639C118.582 276.639 109.423 295.156 92.5072 288.108Z" fill="#B57E6F"/>
<path d="M264.418 232.93C260.794 258.748 226.805 310.318 223.929 314.545C220.726 319.271 215.064 315.968 216.569 309.703C218.282 302.589 227.426 244.124 236.27 227.732C245.846 182.824 270.202 128.952 277.507 122.753C288.18 113.693 296.349 116.315 298.305 138.825C300.247 161.157 275.778 215.852 264.418 232.93Z" fill="#B57E6F"/>
<path d="M285.38 190.298C284.195 193.256 282.971 196.193 281.725 199.064C281.725 199.064 254.324 181.853 252.245 174.673C252.814 173.159 253.385 171.662 253.958 170.182C265.567 181.421 284.353 186.675 284.353 186.675C284.739 187.88 285.075 189.084 285.38 190.298Z" fill="#3A193F"/>
<path d="M219.644 305.267C217.102 306.161 205.32 310.059 203.008 312.493C200.695 314.927 199.028 322.833 199.074 323.702C199.119 324.571 199.551 329.291 199.551 329.291C199.551 329.291 202.896 329.032 202.764 325.48C202.606 321.268 207.145 318.016 209.793 316.954C210.896 316.517 213.59 316.924 213.941 318.519C214.292 320.115 210.103 321.944 209.366 323.092C208.218 324.825 209.244 326.822 209.244 326.822C209.244 326.822 215.669 323.722 216.904 323.133C218.139 322.543 224.63 315.821 226.826 310.43C229.022 305.038 225.494 303.209 219.644 305.267Z" fill="#B57E6F"/>
<path d="M350.353 376.725C351.192 383.839 358.704 403.656 361.027 411.954C366.405 430.993 388.256 513.645 394.828 534.595C402.996 560.636 407.027 545.291 407.027 535.611C407.027 525.931 421.127 461.719 412.354 429.809C407.611 412.533 398.34 395.495 397.527 366.034L350.353 376.725Z" fill="#B57E6F"/>
<path d="M397.685 369.693C381.211 379.062 363.421 383.072 352.315 384.784C351.838 382.944 350.506 378.031 350.353 376.72L397.532 366.014C397.566 367.26 397.617 368.487 397.685 369.693Z" fill="#3A193F"/>
<path d="M413.329 487.903C410.91 510.438 407.032 530.504 407.032 535.591C407.032 545.291 403.011 560.636 394.833 534.574C392.205 526.195 387.128 507.928 381.643 487.827C383.514 488.441 395.778 491.988 413.329 487.903Z" fill="white"/>
<path d="M361.053 553.121C361.053 553.121 358.659 545.266 366.451 542.451C372.586 540.23 390.132 536.251 392.287 529.539C392.287 529.539 396.409 533.513 407.677 530.525C407.677 530.525 416.608 539.163 414.712 552.674L361.053 553.121Z" fill="#F1B104"/>
<path d="M400.577 531.724C400.683 530.779 400.77 520.266 397.43 518.599C394.091 516.932 386.477 518.497 386.685 520.266C386.894 522.034 390.802 530.697 391.768 530.936C392.734 531.175 400.577 531.724 400.577 531.724Z" fill="#F1B104"/>
<path d="M415.185 552.729H360.666C359.88 552.729 359.243 553.366 359.243 554.152V554.676C359.243 555.461 359.88 556.098 360.666 556.098H415.185C415.971 556.098 416.608 555.461 416.608 554.676V554.152C416.608 553.366 415.971 552.729 415.185 552.729Z" fill="white"/>
<path d="M393.41 539.666C393.41 539.666 391.824 533.99 388.51 533.975C384.444 533.975 383.651 536.292 383.651 536.292" stroke="white" stroke-width="3" stroke-linecap="round" stroke-linejoin="round"/>
<path d="M386.731 541.998C386.731 541.998 385.796 536.617 382.497 536.312C381.503 536.192 380.495 536.344 379.581 536.753C378.667 537.161 377.881 537.809 377.308 538.629" stroke="white" stroke-width="3" stroke-linecap="round" stroke-linejoin="round"/>
<path d="M326.617 381.293C325.6 383.727 263.081 367.619 264.342 361.898C265.003 358.905 282.991 358.956 299.479 363.864C314.504 368.336 328.289 377.37 326.617 381.293Z" fill="#32323C"/>
<path d="M275.611 360.942C272.652 361.583 272.8 381.608 275.611 406.948C278.421 432.288 284.683 527.084 280.612 533.654C276.541 540.225 295.947 534.594 296.577 531.154C297.207 527.714 323.079 472.893 317.869 438.752C312.537 403.818 320.736 380.363 321.935 376.608C323.135 372.853 297.436 356.196 275.611 360.942Z" fill="#B57E6F"/>
<path d="M321.956 376.608C321.651 377.553 320.904 379.743 320.04 383.056C304.461 368.046 285.202 365.414 273.893 365.343C274.248 362.665 274.818 361.1 275.611 360.927C297.436 356.197 323.176 372.848 321.956 376.608Z" fill="#3A193F"/>
<path d="M312.283 486.907C312.284 486.917 312.284 486.927 312.283 486.938C305.914 509.631 296.943 529.143 296.577 531.145C295.952 534.585 276.551 540.215 280.622 533.645C282.462 530.667 282.188 509.564 281.069 485.022C281.08 485.032 289.888 490.698 312.283 486.907Z" fill="white"/>
<path d="M246.949 553.121C246.949 553.121 244.555 545.266 252.347 542.451C258.481 540.23 279.362 536.251 281.517 529.539C281.517 529.539 285.644 533.513 296.908 530.525C296.908 530.525 304.42 541.643 302.61 552.674L246.949 553.121Z" fill="#F1B104"/>
<path d="M286.473 531.724C286.579 530.779 286.666 520.266 283.326 518.599C279.987 516.932 275.702 518.497 275.921 520.266C276.139 522.034 280.033 530.697 281.003 530.936C281.974 531.175 286.473 531.724 286.473 531.724Z" fill="#F1B104"/>
<path d="M303.083 552.729H246.562C245.776 552.729 245.139 553.366 245.139 554.152V554.676C245.139 555.461 245.776 556.098 246.562 556.098H303.083C303.869 556.098 304.506 555.461 304.506 554.676V554.152C304.506 553.366 303.869 552.729 303.083 552.729Z" fill="white"/>
<path d="M276.963 540.331C276.963 540.331 276.378 533.655 273.064 533.645C268.998 533.645 269.877 536.958 269.877 536.958" stroke="white" stroke-width="3" stroke-linecap="round" stroke-linejoin="round"/>
<path d="M269.293 542.999C269.293 542.999 268.703 536.322 265.394 536.312C261.328 536.312 262.202 539.63 262.202 539.63" stroke="white" stroke-width="3" stroke-linecap="round" stroke-linejoin="round"/>
<path d="M285.263 259.937C280.612 272.874 278.421 282.432 274.355 316.222C270.609 347.325 264.652 355.643 264.342 361.898C264.342 361.898 302.834 354.388 326.617 381.293L334.881 361.898L341.225 377.386C341.225 377.386 377.313 381.293 412.359 357.203C412.359 357.203 401.415 345.318 398.208 319.093C394.884 291.929 390.177 273.148 384.373 261.99C378.568 250.832 286.864 255.476 285.263 259.937Z" fill="#A1CBE2"/>
<path d="M334.881 361.898C332.879 355.328 324.716 321.537 323.491 320.602C322.266 319.667 314.118 314.967 314.118 314.967" stroke="#174B64" stroke-width="2" stroke-linecap="round" stroke-linejoin="round"/>
<path d="M388.048 270.486C381.872 266.96 364.158 260.562 323.674 268.352C295.479 273.768 286.513 267.844 283.987 263.596C284.389 262.392 284.816 261.177 285.263 259.937C286.864 255.476 378.568 250.832 384.378 261.995C385.783 264.743 387.009 267.579 388.048 270.486Z" fill="#3A193F"/>
<path d="M391.336 368.691L389.435 369.327C389.293 368.9 385.877 358.514 381.811 329.403C378.009 302.142 370.08 264.764 369.104 260.09C369.815 260.064 370.491 260.044 371.137 260.034C372.413 266.045 380.088 302.417 383.814 329.139C387.819 358.001 391.301 368.59 391.336 368.691Z" fill="white"/>
<path d="M385.664 370.694L383.753 371.329C383.61 370.902 380.195 360.516 376.128 331.405C372.403 304.683 364.712 266.568 363.467 260.44C364.158 260.379 364.829 260.328 365.5 260.283C366.888 267.132 374.441 304.688 378.131 331.131C382.141 360.003 385.628 370.592 385.664 370.694Z" fill="white"/>
<path d="M361.896 104.293C371.086 107.525 386.645 113.475 392.104 117.54C397.563 121.605 423.409 154.125 423.409 154.125C423.409 154.125 412.054 177.915 386.075 186.991C386.075 186.991 375.122 213.215 385.288 262.361C385.288 262.361 378.197 254.739 325.244 267.071C288.917 275.537 280.327 259.266 280.551 256.761C280.775 254.256 294.244 218.591 284.363 186.676C284.363 186.676 257.501 179.17 248.168 162.9C248.168 162.9 264.215 129.364 272.124 122.992C280.033 116.62 301.421 110.548 308.852 108.256C316.283 105.965 361.896 104.293 361.896 104.293Z" fill="#3A193F"/>
<path d="M384.551 259.531C386.253 267.193 416.384 261.761 405.639 230.059C394.894 198.357 385.979 187.443 385.979 187.443C385.979 187.443 376.327 222.514 384.551 259.531Z" fill="#F1B104"/>
<path d="M379.996 110.121C374.563 122.789 363.132 157.982 384.988 215.303L381.552 231.939C381.552 231.939 347.756 182.651 367.904 107.088C368.982 103.048 379.996 110.121 379.996 110.121Z" fill="#F1B104"/>
<path d="M308.862 108.571C289.944 140.375 295.744 211.005 287.687 222.514C287.687 222.514 275.687 144.547 292.643 114.344C295.896 108.566 311.028 104.933 308.862 108.571Z" fill="#F1B104"/>
<path d="M363.132 104.958C363.132 104.958 335.384 121.147 311.577 107.591C311.577 107.591 324.792 100.228 326.525 86.925C326.54 86.8496 326.55 86.7732 326.556 86.6964C326.556 86.5388 326.591 86.3762 326.606 86.2187C326.611 86.1697 326.611 86.1204 326.606 86.0714C326.642 85.7055 326.667 85.3397 326.683 84.9687C326.683 84.5013 326.683 84.0236 326.683 83.5358H326.713L351.223 77.8804C351.223 77.8804 351.192 79.5928 351.431 82.1791C352.026 88.6577 354.333 100.634 363.132 104.958Z" fill="#B57E6F"/>
<path d="M351.731 85.8732C345.631 100.101 329.722 98.5764 323.328 96.1831C325.007 93.3421 326.101 90.1945 326.545 86.925C326.561 86.8496 326.571 86.7732 326.576 86.6964C326.576 86.5388 326.617 86.3813 326.627 86.2187C326.632 86.1697 326.632 86.1204 326.627 86.0714C326.662 85.7055 326.688 85.3397 326.703 84.9687C326.723 84.4945 326.723 84.0168 326.703 83.5358L351.223 77.8804C351.223 77.8804 351.492 83.2868 351.731 85.8732Z" fill="#3A193F"/>
<path d="M353.606 78.4497C353.156 80.3754 352.321 82.1902 351.151 83.7851C349.83 85.5991 349.317 86.6458 348.173 87.3979C345.179 89.3643 329.433 94.6183 323.267 85.8735C320.375 81.7729 318.693 66.0565 320.08 53.5973C321.564 40.2844 349.083 46.0567 353.627 57.5607C356.448 64.7608 354.781 73.526 353.606 78.4497Z" fill="#B57E6F"/>
<path d="M338.195 52.9061C337.113 53.0484 319.323 57.149 313.635 50.1825C307.947 43.2161 316.436 36.7019 324.873 37.52C324.873 37.52 325.483 30.7213 335.74 28.7091C346.084 26.6766 350.628 30.8382 350.669 34.7101C350.669 34.7101 358.064 31.7985 363.589 36.2345C369.114 40.6704 366.989 44.0698 366.756 48.587C366.522 53.1043 369.993 51.9153 369.968 56.6358C369.937 61.6713 364.524 61.6764 360.133 71.5899C358.45 75.4009 355.482 77.0472 355.365 75.2993C355.248 73.5513 355.131 73.3277 354.394 72.3419C353.657 71.3562 350.374 65.9142 350.104 58.4955C349.835 51.0768 347.751 51.6612 338.195 52.9061Z" fill="#3A193F"/>
<path d="M347.909 51.5239C343.309 51.8491 329.727 59.8216 315.795 54.3389" stroke="#3A193F" stroke-width="3" stroke-linecap="round" stroke-linejoin="round"/>
<path d="M354.857 76.9353C358.66 76.9353 361.744 73.8527 361.744 70.0502C361.744 66.2476 358.66 63.165 354.857 63.165C351.053 63.165 347.97 66.2476 347.97 70.0502C347.97 73.8527 351.053 76.9353 354.857 76.9353Z" fill="#B57E6F"/>
<path d="M371.356 188.835C371.356 188.835 390.375 228.393 418.463 235.903C427.851 238.408 436.975 230.822 437.874 214.739C438.774 198.657 416.974 164.125 416.974 164.125C400.297 183.292 386.075 186.991 386.075 186.991L378.39 183.043L371.356 188.835Z" fill="#B57E6F"/>
<path d="M368.814 187.728C366.237 186.259 358.684 177.738 357.485 174.562C356.285 171.386 357.739 162.565 358.115 161.793C358.491 161.02 360.692 156.259 360.692 156.259C361.406 156.955 361.924 157.827 362.192 158.787C362.459 159.748 362.468 160.762 362.217 161.727C361.712 163.655 361.717 165.681 362.229 167.607C362.741 169.533 363.744 171.294 365.139 172.718C365.988 173.576 370.273 174.008 371.208 172.718C372.143 171.427 369.937 168.012 369.683 166.671C369.292 164.638 371.005 163.231 371.005 163.231L376.637 169.75C377.552 170.797 378.67 179.608 378.629 185.431C378.588 191.254 374.283 190.847 368.814 187.728Z" fill="#B57E6F"/>
<path d="M421.284 171.376C421.06 171.661 407.052 189.343 393.451 190.807L386.075 186.991C386.075 186.991 400.307 183.297 416.969 164.125V164.171L416.994 164.211L421.193 171.239V171.269L421.284 171.376Z" fill="#3A193F"/>
<path d="M393.115 189.811C393.115 189.811 410.468 197.042 417.701 203.83" stroke="#9E2923" stroke-width="2" stroke-linecap="round" stroke-linejoin="round"/>
<path d="M335.537 59.1309C335.537 59.1309 338.104 57.6929 341.804 60.0659" stroke="#3A193F" stroke-linecap="round" stroke-linejoin="round"/>
<path d="M339.02 64.8411C339.065 63.8431 338.476 63.006 337.705 62.9714C336.934 62.9368 336.273 63.7178 336.228 64.7158C336.183 65.7139 336.772 66.551 337.543 66.5856C338.314 66.6202 338.976 65.8392 339.02 64.8411Z" fill="#3A193F"/>
<path d="M326.313 64.8436C326.358 63.8455 325.769 63.0084 324.998 62.9738C324.227 62.9392 323.565 63.7202 323.52 64.7183C323.475 65.7163 324.064 66.5534 324.835 66.588C325.607 66.6227 326.268 65.8416 326.313 64.8436Z" fill="#3A193F"/>
<path d="M330.49 64.8877L329.982 74.0391L333.077 75.162" stroke="#3A193F" stroke-linecap="round" stroke-linejoin="round"/>
<path d="M338.048 76.981C338.048 76.981 336.284 80.6446 333.097 80.2381" stroke="#3A193F" stroke-linecap="round" stroke-linejoin="round"/>
<path d="M102.129 262.569C102.129 262.569 104.67 261.131 108.391 263.499" stroke="#3A193F" stroke-linecap="round" stroke-linejoin="round"/>
<path d="M84.883 262.701C84.883 262.701 87.1245 260.801 91.2111 262.417" stroke="#3A193F" stroke-linecap="round" stroke-linejoin="round"/>
<path d="M105.605 268.79C105.65 267.792 105.061 266.955 104.29 266.921C103.518 266.886 102.857 267.667 102.812 268.665C102.767 269.663 103.356 270.5 104.127 270.535C104.899 270.569 105.56 269.788 105.605 268.79Z" fill="#3A193F"/>
<path d="M89.3435 267.773C89.3883 266.775 88.7994 265.938 88.0282 265.903C87.257 265.869 86.5955 266.65 86.5507 267.648C86.5059 268.646 87.0948 269.483 87.8659 269.518C88.6371 269.552 89.2987 268.771 89.3435 267.773Z" fill="#3A193F"/>
<path d="M94.5404 274.135C94.0685 274.135 93.6161 273.947 93.2824 273.614C92.9488 273.28 92.7614 272.828 92.7614 272.356C92.7614 271.884 92.9488 271.432 93.2824 271.099C93.6161 270.765 94.0685 270.578 94.5404 270.578" stroke="#3A193F" stroke-linecap="round" stroke-linejoin="round"/>
<path d="M94.2862 280.232C94.2862 280.232 98.8608 281.157 102.683 278.408" stroke="#3A193F" stroke-linecap="round" stroke-linejoin="round"/>
</svg>
