<svg width="370" height="370" viewBox="0 0 370 370" fill="none" xmlns="http://www.w3.org/2000/svg">
<path d="M337.041 245.821C336.143 243.204 335.179 240.453 334.012 237.564C333.734 236.809 333.516 236.397 333.516 236.397C328.861 224.821 323.412 213.579 317.21 202.753C311.292 192.43 306.406 183.349 302.141 175.365C286.799 186.442 269.53 193.12 251.367 197.798C236.571 192.981 222.192 190.295 210.36 189.883L187.684 152.252C164.844 182.043 114.135 198.9 114.135 198.9C114.135 198.9 30.5955 231.784 11.6732 301.962C3.83321 331.202 25.4367 351.087 30.5409 352.19C39.2101 354.176 49.4086 355.626 60.9526 356.589C66.5235 357.085 72.303 357.418 78.4946 357.691H78.7031C164.978 364.712 235.106 362.85 282.012 354.94C300.795 351.708 315.865 347.493 326.664 342.557C335.815 338.357 341.937 333.68 344.827 328.451C356.44 308.293 343.645 265.016 337.041 245.821Z" fill="#3793C9"/>
<path d="M183.612 82.6207C184.228 93.0128 176.8 101.543 166.959 101.543C157.118 101.543 148.796 93.1021 148.245 82.6207C147.694 72.1392 155.127 63.8374 164.899 63.8374C174.67 63.8374 182.992 72.164 183.612 82.6207Z" fill="#8CC3E6"/>
<path d="M183.612 82.6207C184.228 93.0128 176.8 101.543 166.959 101.543C157.118 101.543 148.796 93.1021 148.245 82.6207C147.694 72.1392 155.127 63.8374 164.899 63.8374C174.67 63.8374 182.992 72.164 183.612 82.6207Z" stroke="#313163" stroke-width="4.8" stroke-linecap="round" stroke-linejoin="round"/>
<path d="M266.724 113.241C252.822 101.061 226.477 105.947 222.897 109.87L240.235 187.272C259.639 180.733 278.144 172.615 295.071 161.453C280.964 133.603 276.769 122.044 266.724 113.241Z" fill="#FFC1BB"/>
<path d="M302.295 175.301C299.678 170.276 297.27 165.738 295.14 161.468C278.214 172.615 259.704 180.802 240.305 187.287L243.055 199.739C264.386 194.978 284.544 188.027 302.295 175.301Z" fill="#F36B64"/>
<path d="M187.808 152.183C164.968 181.974 114.259 198.9 114.259 198.9C114.259 198.9 103.802 179.243 68.5195 150.326C33.6391 121.701 36.7423 70.7189 63.5543 49.5324C90.9372 27.929 136.279 24.6271 167.446 70.2422C197.996 114.621 183.27 144.824 183.27 144.824L187.808 152.183Z" fill="#FFC1BB"/>
<path d="M61.0716 356.246V356.524C49.5127 355.561 39.3291 354.116 30.6599 352.12C36.7125 330.035 56.0469 279.673 64.4231 272.31C64.5125 272.38 58.0478 319.852 61.0716 356.246Z" fill="#3B7AB5"/>
<path d="M210.523 189.749C228.478 190.434 252.286 196.422 274.713 206.74C295.219 216.174 314.688 229.083 327.622 244.997" stroke="#313163" stroke-width="4.29" stroke-linecap="round" stroke-linejoin="round"/>
<path d="M160.152 84.8249C156.984 81.5926 152.992 78.3702 151.483 76.3593C143.777 66.1112 152.237 60.1927 155.127 55.0339C157.053 51.6625 158.225 47.5315 155.624 39.5524C148.955 19.4633 104.696 9.4883 69.3983 37.8345C13.7386 82.5558 48.8275 133.95 68.6436 150.117C83.2312 162.033 93.4694 172.411 100.634 180.459C112.458 177.356 123.624 172.142 133.593 165.067C142.878 158.533 147.56 147.247 146.115 136.031L144.487 123.558C144.487 123.558 153.98 113.583 156.458 100.371C157.262 95.4901 163.315 88.0573 160.152 84.8249Z" fill="#313163"/>
<path d="M156.711 98.2412C163.166 109.661 160.976 123.489 151.825 128.856C142.674 134.224 130.083 129.353 123.752 117.779C117.421 106.205 119.695 92.6008 128.777 87.3029C137.858 82.0051 150.311 86.8213 156.711 98.2412Z" fill="#FFC1BB"/>
<path d="M130.837 107.049C130.837 107.049 128.911 100.441 135.107 97.3474C141.369 94.1796 146.249 99.1348 147.282 102.233C147.972 104.219 148.111 107.531 143.777 109.939C139.442 112.347 147.213 118.742 151.344 116.2" stroke="#DB928A" stroke-width="4.8" stroke-linecap="round" stroke-linejoin="round"/>
<path d="M183.404 144.75C183.404 144.75 179.432 159.199 161.661 164.775" stroke="#DB928A" stroke-width="4.8" stroke-linecap="round" stroke-linejoin="round"/>
<path d="M61.1413 356.659C61.1413 356.659 55.4313 317.995 62.2436 285.314" stroke="#313163" stroke-width="4.29" stroke-linecap="round" stroke-linejoin="round"/>
<path d="M225.374 87.6452C225.374 87.6452 230.945 87.4367 232.117 88.6085C233.289 89.7803 224.481 93.6978 225.444 94.8695C226.407 96.0413 231.223 96.3243 231.223 96.3243" stroke="#A6A6B2" stroke-width="3.67" stroke-linecap="round" stroke-linejoin="round"/>
<path d="M240.508 74.7806C240.508 74.7806 249.317 74.5025 251.313 76.429C253.309 78.3555 239.133 84.5471 240.647 86.4736C242.162 88.4 249.868 88.7476 249.868 88.7476" stroke="#A6A6B2" stroke-width="3.67" stroke-linecap="round" stroke-linejoin="round"/>
<path d="M226.412 59.9196C226.412 59.9196 230.816 59.7805 231.779 60.7438C232.743 61.707 225.652 64.8003 226.482 65.7636C227.311 66.7268 231.02 66.8659 231.02 66.8659" stroke="#A6A6B2" stroke-width="3.67" stroke-linecap="round" stroke-linejoin="round"/>
<path d="M220.489 274.922C220.489 274.922 209.069 264.877 202.396 268.318C195.722 271.759 209.754 279.241 209.754 279.241C209.754 279.241 192.555 282.34 195.995 289.172C199.436 296.004 211.75 286.143 211.75 286.143C211.75 286.143 199.228 298.114 206.179 303.208C213.13 308.303 216.705 293.228 216.705 293.228C216.705 293.228 213.264 308.988 219.734 308.025C226.204 307.061 226.477 289.033 225.374 284.907C224.133 280.84 224.272 274.922 220.489 274.922Z" fill="white"/>
<path d="M228.949 281.873C228.949 278.228 226.129 275.2 222.688 275.2C219.247 275.2 216.482 278.228 216.482 281.873C216.482 285.517 219.302 288.546 222.743 288.546C226.184 288.546 228.949 285.587 228.949 281.873Z" fill="#FFDF5A"/>
<path d="M285.299 253.527C274.701 256.142 264.361 259.712 254.406 264.192" stroke="#EBEBF7" stroke-width="2.76" stroke-linecap="round" stroke-linejoin="round"/>
<path d="M252.231 247.609C251.129 259.376 245.146 261.918 247.003 265.429C248.378 267.976 251.541 263.159 252.852 263.914C254.162 264.669 251.888 276.575 254.639 277.608C257.39 278.641 258.765 275.821 258.765 275.821C258.765 275.821 259.455 278.502 261.382 278.363C263.308 278.224 264.132 276.024 264.132 276.024C264.132 276.024 264.202 278.775 266.615 278.01C267.99 277.514 269.232 274.847 269.232 274.847C269.232 274.847 269.505 278.492 271.982 275.741C275.215 272.161 276.521 262.871 277.002 244.639C269.048 242.125 260.623 241.466 252.375 242.713C252.436 244.346 252.388 245.982 252.231 247.609Z" fill="#FFC1BB"/>
<path d="M272.092 196.492C272.092 196.492 243.328 199.794 248.904 213.209C248.904 213.209 252.415 230.682 252.549 242.862C260.801 241.682 269.212 242.338 277.181 244.783C277.25 241.754 277.25 238.661 277.181 235.349C276.63 212.246 272.092 196.492 272.092 196.492Z" fill="#F36B64"/>
<path d="M149.139 216.442C139.303 242.038 141.642 262.057 146.8 263.363C149.417 264.053 148.866 260.955 148.866 260.955C148.866 260.955 150.519 266.531 152.838 265.841C155.157 265.15 154.487 262.539 154.487 262.539C154.487 262.539 155.589 266.873 157.927 266.049C159.65 265.429 159.511 263.02 159.511 263.02C159.511 263.02 160.748 265.006 162.058 264.674C164.045 264.053 163.637 261.163 163.295 259.376C162.952 257.589 162.744 253.666 163.225 253.184C163.707 252.703 164.258 256.074 165.708 256.829C169.283 258.616 168.459 250.637 166.944 246.094C166.189 243.825 168.32 234.813 174.238 225.042C166.616 220.156 159.189 216.1 149.139 216.442Z" fill="#FFC1BB"/>
<path d="M183.473 169.452C183.473 169.452 160.355 188.369 149.76 214.585C149.556 215.206 149.263 215.821 149.074 216.442C159.119 216.169 166.616 220.086 174.322 225.111C180.241 215.409 190.077 205.022 204.804 200.206C234.247 190.365 189.392 164.084 183.473 169.452Z" fill="#F36B64"/>
<path d="M281.446 168.076C282.067 198.965 259.018 216.303 230.052 216.303C201.085 216.303 177.694 198.965 177.694 168.076C177.694 126.175 200.603 109.87 228.885 109.87C257.166 109.87 280.533 124.318 281.446 168.076Z" fill="#FFC1BB"/>
<path d="M192.897 188.717C192.833 190.555 192.133 192.315 190.916 193.695C189.699 195.075 188.041 195.99 186.224 196.283C183.357 192.243 181.176 187.757 179.769 183.007C180.509 182.197 181.414 181.556 182.423 181.128C183.432 180.699 184.522 180.493 185.618 180.524C189.873 180.663 193.106 184.382 192.897 188.717Z" fill="#FCABA7"/>
<path d="M258.537 205.504C258.467 207.344 257.789 209.109 256.61 210.524C254.56 211.513 252.445 212.364 250.28 213.071C246.218 212.728 243.194 209.148 243.329 204.883C243.468 200.479 246.978 197.108 251.174 197.247C253.238 197.385 255.165 198.327 256.542 199.871C257.919 201.415 258.635 203.438 258.537 205.504Z" fill="#FCABA7"/>
<path d="M291.009 181.422C291.148 188.577 285.781 194.357 278.899 194.357C272.017 194.357 266.382 188.508 266.243 181.422C266.104 174.337 271.54 168.558 278.353 168.558C285.165 168.558 290.875 174.337 291.009 181.422Z" fill="#FFC1BB"/>
<path d="M191.318 162.57C191.318 169.655 185.881 175.434 178.93 175.434C172.123 175.434 166.547 169.655 166.547 162.57C166.547 155.484 172.123 149.774 178.93 149.774C185.812 149.774 191.249 155.554 191.318 162.57Z" fill="#FFC1BB"/>
<path d="M193.175 172.823C193.175 172.823 198.061 179.908 205.901 175.986" stroke="#A35A58" stroke-width="5.02" stroke-linecap="round" stroke-linejoin="round"/>
<path d="M239.063 186.1C239.063 186.1 242.574 192.222 251.724 188.989" stroke="#A35A58" stroke-width="5.02" stroke-linecap="round" stroke-linejoin="round"/>
<path d="M163.935 253.8L178.518 251.322" stroke="white" stroke-width="3.27" stroke-linecap="round" stroke-linejoin="round"/>
<path d="M192.555 250.016C192.416 254.763 188.702 258.482 184.228 258.343C179.754 258.204 176.264 254.217 176.388 249.535C176.512 244.853 180.31 241.094 184.71 241.213C189.109 241.332 192.694 245.28 192.555 250.016Z" fill="#FFDF5A"/>
<path d="M191.934 246.442C191.934 246.442 193.518 253.457 186.969 253.889C182.222 254.098 181.601 246.938 184.486 246.253C187.371 245.568 187.996 248.592 186.755 249.416" stroke="#F36B64" stroke-width="1.75" stroke-linecap="round" stroke-linejoin="round"/>
<path d="M178.106 167.182C178.106 167.182 177.833 160.301 175.077 159.61C172.321 158.92 171.641 161.815 172.535 163.394" stroke="#DB928A" stroke-width="4.8" stroke-linecap="round" stroke-linejoin="round"/>
<path d="M277.871 186.194C277.871 186.194 280.895 180.072 283.651 180.623C286.406 181.174 285.989 184.128 284.544 185.231" stroke="#DB928A" stroke-width="4.8" stroke-linecap="round" stroke-linejoin="round"/>
<path d="M279.246 184.382C279.246 184.382 288.879 154.179 277.663 134.978C266.104 115.237 240.166 104.641 213.403 111.796C186.641 118.951 179.347 145.162 178.518 154.794C177.689 164.427 194.62 164.774 200.951 159.61C200.951 159.61 201.844 164.839 210.235 167.316C229.5 172.957 255.577 159.61 255.577 159.61C255.577 159.61 261.839 176.879 279.246 184.382Z" fill="#313163"/>
<path d="M254.406 264.192C246.726 267.574 239.301 271.505 232.187 275.954" stroke="#EBEBF7" stroke-width="2.76" stroke-linecap="round" stroke-linejoin="round"/>
<path d="M233.423 274.237C233.423 274.237 224.684 269.609 219.957 273.477C217.549 275.404 222.778 277.812 221.943 279.192C221.109 280.572 220.087 283.73 223.046 284.212C226.005 284.693 222.425 289.51 227.584 289.028C232.743 288.546 235.076 275.885 233.423 274.237Z" fill="#FFDF5A"/>
<path d="M244.709 267.975C244.719 268.068 244.708 268.162 244.677 268.251C244.646 268.339 244.596 268.419 244.529 268.485C244.463 268.551 244.383 268.601 244.294 268.631C244.206 268.662 244.112 268.672 244.019 268.661C241.268 268.045 231.775 265.771 231.978 259.991C232.256 253.388 243.398 257.102 244.709 267.975Z" fill="#FFDF5A"/>
<path d="M253.169 265.498C253.102 265.438 253.022 265.395 252.935 265.373C252.847 265.351 252.756 265.35 252.668 265.37C252.581 265.391 252.499 265.432 252.431 265.49C252.363 265.549 252.309 265.623 252.276 265.706C251.104 268.527 247.251 278.983 252.827 279.673C258.949 280.567 257.296 269.763 253.169 265.498Z" fill="#FFDF5A"/>
<path d="M159.531 263.09C158.904 259.756 158.605 256.368 158.637 252.976" stroke="#F0998B" stroke-width="1.75" stroke-linecap="round" stroke-linejoin="round"/>
<path d="M154.506 262.658C153.446 259.422 153.049 256.006 153.34 252.613" stroke="#F0998B" stroke-width="1.75" stroke-linecap="round" stroke-linejoin="round"/>
<path d="M148.796 261.024C147.665 258.258 146.968 255.334 146.731 252.355" stroke="#F0998B" stroke-width="1.75" stroke-linecap="round" stroke-linejoin="round"/>
<path d="M258.81 275.821C258.81 275.821 259.912 269.624 260.394 264.674" stroke="#F0998B" stroke-width="1.75" stroke-linecap="round" stroke-linejoin="round"/>
<path d="M264.177 276.094C265.195 272.367 265.954 268.575 266.446 264.743" stroke="#F0998B" stroke-width="1.75" stroke-linecap="round" stroke-linejoin="round"/>
<path d="M269.271 274.922C270.52 271.85 271.397 268.639 271.883 265.359" stroke="#F0998B" stroke-width="1.75" stroke-linecap="round" stroke-linejoin="round"/>
<path d="M114.467 199.173C124.993 195.39 144.531 187.614 160.907 177.158" stroke="#3B7AB5" stroke-width="4.29" stroke-linecap="round" stroke-linejoin="round"/>
<path d="M250.831 112.278C250.831 112.278 239.411 114.477 242.301 119.984C244.158 123.628 254.272 122.873 255.707 124.11C257.142 125.346 263.964 131.404 272.494 131.404C283.303 131.334 258.259 110.555 250.831 112.278Z" fill="#FFC1BB"/>
<path d="M249.386 112.55L254.475 111.518L244.982 111.245L249.386 112.55Z" fill="#DB928A"/>
<path d="M282.206 354.871C282.769 352.303 282.578 349.627 281.655 347.165C280.689 344.711 279.128 342.535 277.111 340.835C272.106 336.325 267.441 331.45 263.154 326.252C269.485 330.224 283.512 338.168 299.345 341.867C308.427 343.933 317.99 344.688 326.867 342.488C315.984 347.562 300.989 351.708 282.206 354.871Z" fill="#3B7AB5"/>
<path d="M155.678 88.7477C155.678 88.7477 174.546 75.3963 180.504 68.9316" stroke="#313163" stroke-width="4.8" stroke-linecap="round" stroke-linejoin="round"/>
<path d="M74.562 34.1854C74.562 34.1854 87.9679 25.1041 93.2062 18.57C99.7404 10.3129 118.112 0.749936 138.96 13.8232C159.874 27.0306 163.727 45.5408 153.27 58.0133C142.674 70.3766 72.1538 61.6379 74.562 34.1854Z" fill="#313163"/>
<path d="M214.228 191.537C214.228 191.537 210.995 195.802 212.44 197.316" stroke="#DB928A" stroke-width="4.8" stroke-linecap="round" stroke-linejoin="round"/>
<path d="M219.317 208.394C219.317 208.394 223.17 209.769 226.819 208.736" stroke="#A35A58" stroke-width="5.02" stroke-linecap="round" stroke-linejoin="round"/>
<path d="M46.5584 198.83C46.5584 198.83 42.0897 201.03 39.4036 197.107" stroke="#BF6C66" stroke-width="1.83" stroke-linecap="round" stroke-linejoin="round"/>
<path d="M59.3538 207.291C67.0292 207.291 73.2514 203.072 73.2514 197.867C73.2514 192.663 67.0292 188.443 59.3538 188.443C51.6784 188.443 45.4563 192.663 45.4563 197.867C45.4563 203.072 51.6784 207.291 59.3538 207.291Z" fill="#FFDF5A"/>
<path d="M50.7539 205.295C51.8562 200.409 53.7827 196.214 50.4808 190.712C47.3826 192.43 45.5157 195.047 45.5157 197.867C45.4561 200.891 47.5216 203.572 50.7539 205.295Z" fill="#FFDF5A"/>
<path d="M50.754 205.295C52.2808 206.111 53.9315 206.669 55.6398 206.949C58.5295 201.1 59.5623 194.565 55.9129 188.851C54.0065 189.146 52.1674 189.776 50.481 190.713C53.7133 196.125 51.8563 200.345 50.754 205.295Z" fill="#C1856B"/>
<path d="M63.2762 188.92C62.004 188.696 60.7149 188.581 59.4232 188.577C58.2718 188.599 57.1227 188.69 55.9823 188.85C59.5821 194.635 58.589 201.089 55.7092 206.948C56.9814 207.173 58.2704 207.287 59.5622 207.291C60.3864 207.291 61.1411 207.221 61.9008 207.152C64.3784 201.442 65.0438 193.875 63.2762 188.92Z" fill="#FFDF5A"/>
<path d="M68.0228 190.574C66.511 189.765 64.8881 189.185 63.2066 188.851C64.9941 193.875 64.3089 201.442 61.717 207.222C63.364 207.03 64.9814 206.639 66.5333 206.055C69.6762 201.03 71.9453 196.125 68.0228 190.574Z" fill="#C1856B"/>
<path d="M73.2512 197.867C73.2512 194.839 71.1906 192.222 67.9533 190.504C71.8758 196.144 69.6067 200.891 66.439 205.896C70.57 204.332 73.2512 201.373 73.2512 197.867Z" fill="#FFDF5A"/>
<path d="M58.3209 192.361C58.3209 192.361 58.6684 178.955 52.889 176.125C47.1095 173.295 49.4481 187.684 54.3338 192.361C59.2196 197.038 58.3209 192.361 58.3209 192.361Z" fill="#EBEBF7"/>
<path d="M60.5255 192.152C60.5255 192.152 62.1739 178.598 69.3982 179.213C76.6226 179.829 67.7498 191.805 64.9296 193.18C62.1094 194.556 60.3169 193.602 60.5255 192.152Z" fill="#EBEBF7"/>
<path d="M48.0728 193.875C48.0728 193.875 42.3628 192.361 42.1543 187.684" stroke="#BF6C66" stroke-width="1.83" stroke-linecap="round" stroke-linejoin="round"/>
<path d="M306.972 292.672C306.972 292.672 302.007 292.469 301.51 287.707" stroke="#BF6C66" stroke-width="1.83" stroke-linecap="round" stroke-linejoin="round"/>
<path d="M330.914 304.509C328.432 309.048 320.939 309.807 314.196 306.227C307.454 302.648 303.943 295.925 306.351 291.297C308.834 286.759 316.331 285.999 323.074 289.579C329.881 293.293 333.392 299.966 330.914 304.509Z" fill="#FFDF5A"/>
<path d="M307.523 300.314C310.825 296.525 314.474 293.705 314.127 287.375C310.621 287.444 307.672 288.819 306.351 291.347C304.906 293.983 305.527 297.355 307.523 300.314Z" fill="#FFDF5A"/>
<path d="M307.523 300.314C308.471 301.745 309.658 303.001 311.034 304.028C316.331 300.314 320.318 295.016 319.837 288.204C318.002 287.56 316.071 287.235 314.127 287.24C314.539 293.705 310.82 296.595 307.523 300.314Z" fill="#C1856B"/>
<path d="M326.237 291.779C325.221 290.959 324.14 290.224 323.005 289.579C321.965 289.033 320.882 288.573 319.767 288.204C320.264 295.016 316.262 300.244 310.964 304.028C311.938 304.832 312.999 305.525 314.127 306.093C314.817 306.436 315.572 306.778 316.192 307.056C321.421 303.407 325.547 297.007 326.237 291.779Z" fill="#FFDF5A"/>
<path d="M329.747 295.562C328.826 294.133 327.661 292.876 326.306 291.848C325.547 297.076 321.341 303.477 316.331 307.24C317.888 307.881 319.534 308.277 321.212 308.412C326.237 305.542 330.502 302.379 329.747 295.562Z" fill="#C1856B"/>
<path d="M330.914 304.509C332.359 301.893 331.743 298.591 329.747 295.498C330.502 302.305 326.307 305.473 321.148 308.362C325.413 308.834 329.266 307.603 330.914 304.509Z" fill="#FFDF5A"/>
<path d="M320.318 292.538C320.318 292.538 326.992 280.91 323.139 275.682C319.286 270.453 314.698 284.212 316.684 290.681C318.874 297.007 320.318 292.538 320.318 292.538Z" fill="#EBEBF7"/>
<path d="M322.384 293.362C322.384 293.362 330.229 282.146 336.351 286.207C342.473 290.269 328.988 296.525 325.825 296.391C322.662 296.257 321.49 294.534 322.384 293.362Z" fill="#EBEBF7"/>
<path d="M310.552 289.028C310.552 289.028 306.287 285.056 308.213 280.701" stroke="#BF6C66" stroke-width="1.83" stroke-linecap="round" stroke-linejoin="round"/>
<path d="M188.428 309.187C188.428 309.187 193.314 309.529 194.69 305.403" stroke="#BF6C66" stroke-width="1.72" stroke-linecap="round" stroke-linejoin="round"/>
<path d="M162.903 317.101C164.417 321.436 171.502 322.88 178.791 320.403C186.08 317.925 190.762 312.419 189.248 308.02C187.733 303.621 180.648 302.24 173.359 304.713C166.07 307.186 161.368 312.836 162.903 317.101Z" fill="#FFDF5A"/>
<path d="M186.363 315.929C183.88 312.285 180.926 309.325 182.44 303.75C185.812 304.246 188.359 305.676 189.183 308.084C190.007 310.492 188.91 313.451 186.363 315.929Z" fill="#FFDF5A"/>
<path d="M186.363 315.929C185.109 317.095 183.725 318.111 182.237 318.958C177.833 315.036 175.077 310.08 176.8 304.028C178.704 303.655 180.654 303.584 182.58 303.819C180.857 309.331 183.885 312.146 186.363 315.929Z" fill="#C1856B"/>
<path d="M169.849 306.297C170.98 305.687 172.153 305.157 173.359 304.713C174.457 304.343 175.585 304.067 176.73 303.889C175.013 309.877 177.763 314.897 182.167 318.819C181.066 319.428 179.923 319.958 178.746 320.403C177.987 320.606 177.257 320.899 176.477 321.088C172.326 317.171 169.576 311.044 169.849 306.297Z" fill="#FFDF5A"/>
<path d="M165.792 309.331C167.02 308.164 168.382 307.147 169.849 306.302C169.576 311.048 172.396 317.106 176.522 320.959C174.891 321.325 173.228 321.531 171.557 321.575C167.237 318.546 163.727 315.244 165.792 309.331Z" fill="#C1856B"/>
<path d="M162.902 317.101C162.078 314.619 163.245 311.803 165.792 309.326C163.727 315.244 167.237 318.546 171.641 321.57C167.326 321.57 163.851 319.921 162.902 317.101Z" fill="#FFDF5A"/>
<path d="M175.494 307.603C175.494 307.603 171.294 296.679 176.04 292.399C180.787 288.119 182.649 300.84 179.347 306.302C176.045 311.763 175.494 307.603 175.494 307.603Z" fill="#EBEBF7"/>
<path d="M173.285 308.154C173.285 308.154 167.922 297.414 161.18 300.314C154.437 303.213 166.343 310.219 169.437 310.492C172.53 310.765 173.91 309.331 173.285 308.154Z" fill="#EBEBF7"/>
<path d="M185.608 305.473C185.608 305.473 190.573 302.374 189.461 298.387" stroke="#BF6C66" stroke-width="1.72" stroke-linecap="round" stroke-linejoin="round"/>
<path d="M215.533 115.922C215.603 125.897 207.827 134.015 198.195 134.015C188.563 134.015 180.653 125.897 180.583 115.922C180.514 105.947 188.359 97.9629 197.922 97.9629C207.624 97.9629 215.489 106.016 215.533 115.922Z" fill="#313163"/>
<path d="M301.386 139.591C301.59 149.154 294.296 156.93 285.08 156.93C275.791 156.93 268.154 149.154 268.015 139.591C267.876 130.028 275.17 122.322 284.321 122.322C293.472 122.322 301.192 129.959 301.386 139.591Z" fill="#313163"/>
<path d="M188.359 128.375C188.359 128.375 194.635 117.228 212.013 112.139" stroke="#F36B64" stroke-width="4.8" stroke-linecap="round" stroke-linejoin="round"/>
<path d="M272.022 129.75C272.022 129.75 281.377 135.668 283.099 154.725" stroke="#F36B64" stroke-width="4.8" stroke-linecap="round" stroke-linejoin="round"/>
</svg>
