<svg width="172" height="34" viewBox="0 0 172 34" fill="none" xmlns="http://www.w3.org/2000/svg">
<path d="M15.6113 19.5312C15.6113 18.9336 15.5176 18.4062 15.3301 17.9492C15.1543 17.4805 14.8379 17.0586 14.3809 16.6836C13.9355 16.3086 13.3145 15.9512 12.5176 15.6113C11.7324 15.2715 10.7363 14.9258 9.5293 14.5742C8.26367 14.1992 7.12109 13.7832 6.10156 13.3262C5.08203 12.8574 4.20898 12.3242 3.48242 11.7266C2.75586 11.1289 2.19922 10.4434 1.8125 9.66992C1.42578 8.89648 1.23242 8.01172 1.23242 7.01562C1.23242 6.01953 1.4375 5.09961 1.84766 4.25586C2.25781 3.41211 2.84375 2.67969 3.60547 2.05859C4.37891 1.42578 5.29883 0.933594 6.36523 0.582031C7.43164 0.230469 8.62109 0.0546875 9.93359 0.0546875C11.8555 0.0546875 13.4844 0.423828 14.8203 1.16211C16.168 1.88867 17.1934 2.84375 17.8965 4.02734C18.5996 5.19922 18.9512 6.45312 18.9512 7.78906H15.5762C15.5762 6.82812 15.3711 5.97852 14.9609 5.24023C14.5508 4.49023 13.9297 3.9043 13.0977 3.48242C12.2656 3.04883 11.2109 2.83203 9.93359 2.83203C8.72656 2.83203 7.73047 3.01367 6.94531 3.37695C6.16016 3.74023 5.57422 4.23242 5.1875 4.85352C4.8125 5.47461 4.625 6.18359 4.625 6.98047C4.625 7.51953 4.73633 8.01172 4.95898 8.45703C5.19336 8.89062 5.55078 9.29492 6.03125 9.66992C6.52344 10.0449 7.14453 10.3906 7.89453 10.707C8.65625 11.0234 9.56445 11.3281 10.6191 11.6211C12.0723 12.0312 13.3262 12.4883 14.3809 12.9922C15.4355 13.4961 16.3027 14.0645 16.9824 14.6973C17.6738 15.3184 18.1836 16.0273 18.5117 16.8242C18.8516 17.6094 19.0215 18.5 19.0215 19.4961C19.0215 20.5391 18.8105 21.4824 18.3887 22.3262C17.9668 23.1699 17.3633 23.8906 16.5781 24.4883C15.793 25.0859 14.8496 25.5488 13.748 25.877C12.6582 26.1934 11.4395 26.3516 10.0918 26.3516C8.9082 26.3516 7.74219 26.1875 6.59375 25.8594C5.45703 25.5312 4.41992 25.0391 3.48242 24.3828C2.55664 23.7266 1.8125 22.918 1.25 21.957C0.699219 20.9844 0.423828 19.8594 0.423828 18.582H3.79883C3.79883 19.4609 3.96875 20.2168 4.30859 20.8496C4.64844 21.4707 5.11133 21.9863 5.69727 22.3965C6.29492 22.8066 6.96875 23.1113 7.71875 23.3105C8.48047 23.498 9.27148 23.5918 10.0918 23.5918C11.2754 23.5918 12.2773 23.4277 13.0977 23.0996C13.918 22.7715 14.5391 22.3027 14.9609 21.6934C15.3945 21.084 15.6113 20.3633 15.6113 19.5312ZM34.4902 21.6055V6.98047H37.7598V26H34.6484L34.4902 21.6055ZM35.1055 17.5977L36.459 17.5625C36.459 18.8281 36.3242 20 36.0547 21.0781C35.7969 22.1445 35.375 23.0703 34.7891 23.8555C34.2031 24.6406 33.4355 25.2559 32.4863 25.7012C31.5371 26.1348 30.3828 26.3516 29.0234 26.3516C28.0977 26.3516 27.248 26.2168 26.4746 25.9473C25.7129 25.6777 25.0566 25.2617 24.5059 24.6992C23.9551 24.1367 23.5273 23.4043 23.2227 22.502C22.9297 21.5996 22.7832 20.5156 22.7832 19.25V6.98047H26.0352V19.2852C26.0352 20.1406 26.1289 20.8496 26.3164 21.4121C26.5156 21.9629 26.7793 22.4023 27.1074 22.7305C27.4473 23.0469 27.8223 23.2695 28.2324 23.3984C28.6543 23.5273 29.0879 23.5918 29.5332 23.5918C30.916 23.5918 32.0117 23.3281 32.8203 22.8008C33.6289 22.2617 34.209 21.541 34.5605 20.6387C34.9238 19.7246 35.1055 18.7109 35.1055 17.5977ZM45.9688 10.6367V33.3125H42.6992V6.98047H45.6875L45.9688 10.6367ZM58.7832 16.332V16.7012C58.7832 18.084 58.6191 19.3672 58.291 20.5508C57.9629 21.7227 57.4824 22.7422 56.8496 23.6094C56.2285 24.4766 55.4609 25.1504 54.5469 25.6309C53.6328 26.1113 52.584 26.3516 51.4004 26.3516C50.1934 26.3516 49.127 26.1523 48.2012 25.7539C47.2754 25.3555 46.4902 24.7754 45.8457 24.0137C45.2012 23.252 44.6855 22.3379 44.2988 21.2715C43.9238 20.2051 43.666 19.0039 43.5254 17.668V15.6992C43.666 14.293 43.9297 13.0332 44.3164 11.9199C44.7031 10.8066 45.2129 9.85742 45.8457 9.07227C46.4902 8.27539 47.2695 7.67187 48.1836 7.26172C49.0977 6.83984 50.1523 6.62891 51.3477 6.62891C52.543 6.62891 53.6035 6.86328 54.5293 7.33203C55.4551 7.78906 56.2344 8.44531 56.8672 9.30078C57.5 10.1562 57.9746 11.1816 58.291 12.377C58.6191 13.5605 58.7832 14.8789 58.7832 16.332ZM55.5137 16.7012V16.332C55.5137 15.3828 55.4141 14.4922 55.2148 13.6602C55.0156 12.8164 54.7051 12.0781 54.2832 11.4453C53.873 10.8008 53.3457 10.2969 52.7012 9.93359C52.0566 9.55859 51.2891 9.37109 50.3984 9.37109C49.5781 9.37109 48.8633 9.51172 48.2539 9.79297C47.6562 10.0742 47.1465 10.4551 46.7246 10.9355C46.3027 11.4043 45.957 11.9434 45.6875 12.5527C45.4297 13.1504 45.2363 13.7715 45.1074 14.416V18.9688C45.3418 19.7891 45.6699 20.5625 46.0918 21.2891C46.5137 22.0039 47.0762 22.584 47.7793 23.0293C48.4824 23.4629 49.3672 23.6797 50.4336 23.6797C51.3125 23.6797 52.0684 23.498 52.7012 23.1348C53.3457 22.7598 53.873 22.25 54.2832 21.6055C54.7051 20.9609 55.0156 20.2227 55.2148 19.3906C55.4141 18.5469 55.5137 17.6504 55.5137 16.7012ZM70.8242 26.3516C69.5 26.3516 68.2988 26.1289 67.2207 25.6836C66.1543 25.2266 65.2344 24.5879 64.4609 23.7676C63.6992 22.9473 63.1133 21.9746 62.7031 20.8496C62.293 19.7246 62.0879 18.4941 62.0879 17.1582V16.4199C62.0879 14.873 62.3164 13.4961 62.7734 12.2891C63.2305 11.0703 63.8516 10.0391 64.6367 9.19531C65.4219 8.35156 66.3125 7.71289 67.3086 7.2793C68.3047 6.8457 69.3359 6.62891 70.4023 6.62891C71.7617 6.62891 72.9336 6.86328 73.918 7.33203C74.9141 7.80078 75.7285 8.45703 76.3613 9.30078C76.9941 10.1328 77.4629 11.1172 77.7676 12.2539C78.0723 13.3789 78.2246 14.6094 78.2246 15.9453V17.4043H64.0215V14.75H74.9727V14.5039C74.9258 13.6602 74.75 12.8398 74.4453 12.043C74.1523 11.2461 73.6836 10.5898 73.0391 10.0742C72.3945 9.55859 71.5156 9.30078 70.4023 9.30078C69.6641 9.30078 68.9844 9.45898 68.3633 9.77539C67.7422 10.0801 67.209 10.5371 66.7637 11.1465C66.3184 11.7559 65.9727 12.5 65.7266 13.3789C65.4805 14.2578 65.3574 15.2715 65.3574 16.4199V17.1582C65.3574 18.0605 65.4805 18.9102 65.7266 19.707C65.9844 20.4922 66.3535 21.1836 66.834 21.7812C67.3262 22.3789 67.918 22.8477 68.6094 23.1875C69.3125 23.5273 70.1094 23.6973 71 23.6973C72.1484 23.6973 73.1211 23.4629 73.918 22.9941C74.7148 22.5254 75.4121 21.8984 76.0098 21.1133L77.9785 22.6777C77.5684 23.2988 77.0469 23.8906 76.4141 24.4531C75.7812 25.0156 75.002 25.4727 74.0762 25.8242C73.1621 26.1758 72.0781 26.3516 70.8242 26.3516ZM85.2734 9.96875V26H82.0215V6.98047H85.1855L85.2734 9.96875ZM91.2148 6.875L91.1973 9.89844C90.9277 9.83984 90.6699 9.80469 90.4238 9.79297C90.1895 9.76953 89.9199 9.75781 89.6152 9.75781C88.8652 9.75781 88.2031 9.875 87.6289 10.1094C87.0547 10.3438 86.5684 10.6719 86.1699 11.0938C85.7715 11.5156 85.4551 12.0195 85.2207 12.6055C84.998 13.1797 84.8516 13.8125 84.7812 14.5039L83.8672 15.0312C83.8672 13.8828 83.9785 12.8047 84.2012 11.7969C84.4355 10.7891 84.793 9.89844 85.2734 9.125C85.7539 8.33984 86.3633 7.73047 87.1016 7.29688C87.8516 6.85156 88.7422 6.62891 89.7734 6.62891C90.0078 6.62891 90.2773 6.6582 90.582 6.7168C90.8867 6.76367 91.0977 6.81641 91.2148 6.875ZM104.152 15.9629H97.3145V13.2031H104.152C105.477 13.2031 106.549 12.9922 107.369 12.5703C108.189 12.1484 108.787 11.5625 109.162 10.8125C109.549 10.0625 109.742 9.20703 109.742 8.24609C109.742 7.36719 109.549 6.54102 109.162 5.76758C108.787 4.99414 108.189 4.37305 107.369 3.9043C106.549 3.42383 105.477 3.18359 104.152 3.18359H98.1055V26H94.7129V0.40625H104.152C106.086 0.40625 107.721 0.740234 109.057 1.4082C110.393 2.07617 111.406 3.00195 112.098 4.18555C112.789 5.35742 113.135 6.69922 113.135 8.21094C113.135 9.85156 112.789 11.252 112.098 12.4121C111.406 13.5723 110.393 14.457 109.057 15.0664C107.721 15.6641 106.086 15.9629 104.152 15.9629ZM127.936 22.748V12.957C127.936 12.207 127.783 11.5566 127.479 11.0059C127.186 10.4434 126.74 10.0098 126.143 9.70508C125.545 9.40039 124.807 9.24805 123.928 9.24805C123.107 9.24805 122.387 9.38867 121.766 9.66992C121.156 9.95117 120.676 10.3203 120.324 10.7773C119.984 11.2344 119.814 11.7266 119.814 12.2539H116.562C116.562 11.5742 116.738 10.9004 117.09 10.2324C117.441 9.56445 117.945 8.96094 118.602 8.42188C119.27 7.87109 120.066 7.4375 120.992 7.12109C121.93 6.79297 122.973 6.62891 124.121 6.62891C125.504 6.62891 126.723 6.86328 127.777 7.33203C128.844 7.80078 129.676 8.50977 130.273 9.45898C130.883 10.3965 131.188 11.5742 131.188 12.9922V21.8516C131.188 22.4844 131.24 23.1582 131.346 23.873C131.463 24.5879 131.633 25.2031 131.855 25.7188V26H128.463C128.299 25.625 128.17 25.127 128.076 24.5059C127.982 23.873 127.936 23.2871 127.936 22.748ZM128.498 14.4688L128.533 16.7539H125.246C124.32 16.7539 123.494 16.8301 122.768 16.9824C122.041 17.123 121.432 17.3398 120.939 17.6328C120.447 17.9258 120.072 18.2949 119.814 18.7402C119.557 19.1738 119.428 19.6836 119.428 20.2695C119.428 20.8672 119.562 21.4121 119.832 21.9043C120.102 22.3965 120.506 22.7891 121.045 23.082C121.596 23.3633 122.27 23.5039 123.066 23.5039C124.062 23.5039 124.941 23.293 125.703 22.8711C126.465 22.4492 127.068 21.9336 127.514 21.3242C127.971 20.7148 128.217 20.123 128.252 19.5488L129.641 21.1133C129.559 21.6055 129.336 22.1504 128.973 22.748C128.609 23.3457 128.123 23.9199 127.514 24.4707C126.916 25.0098 126.201 25.4609 125.369 25.8242C124.549 26.1758 123.623 26.3516 122.592 26.3516C121.303 26.3516 120.172 26.0996 119.199 25.5957C118.238 25.0918 117.488 24.418 116.949 23.5742C116.422 22.7188 116.158 21.7637 116.158 20.709C116.158 19.6895 116.357 18.793 116.756 18.0195C117.154 17.2344 117.729 16.584 118.479 16.0684C119.229 15.541 120.131 15.1426 121.186 14.873C122.24 14.6035 123.418 14.4688 124.719 14.4688H128.498ZM139.555 10.6367V33.3125H136.285V6.98047H139.273L139.555 10.6367ZM152.369 16.332V16.7012C152.369 18.084 152.205 19.3672 151.877 20.5508C151.549 21.7227 151.068 22.7422 150.436 23.6094C149.814 24.4766 149.047 25.1504 148.133 25.6309C147.219 26.1113 146.17 26.3516 144.986 26.3516C143.779 26.3516 142.713 26.1523 141.787 25.7539C140.861 25.3555 140.076 24.7754 139.432 24.0137C138.787 23.252 138.271 22.3379 137.885 21.2715C137.51 20.2051 137.252 19.0039 137.111 17.668V15.6992C137.252 14.293 137.516 13.0332 137.902 11.9199C138.289 10.8066 138.799 9.85742 139.432 9.07227C140.076 8.27539 140.855 7.67187 141.77 7.26172C142.684 6.83984 143.738 6.62891 144.934 6.62891C146.129 6.62891 147.189 6.86328 148.115 7.33203C149.041 7.78906 149.82 8.44531 150.453 9.30078C151.086 10.1562 151.561 11.1816 151.877 12.377C152.205 13.5605 152.369 14.8789 152.369 16.332ZM149.1 16.7012V16.332C149.1 15.3828 149 14.4922 148.801 13.6602C148.602 12.8164 148.291 12.0781 147.869 11.4453C147.459 10.8008 146.932 10.2969 146.287 9.93359C145.643 9.55859 144.875 9.37109 143.984 9.37109C143.164 9.37109 142.449 9.51172 141.84 9.79297C141.242 10.0742 140.732 10.4551 140.311 10.9355C139.889 11.4043 139.543 11.9434 139.273 12.5527C139.016 13.1504 138.822 13.7715 138.693 14.416V18.9688C138.928 19.7891 139.256 20.5625 139.678 21.2891C140.1 22.0039 140.662 22.584 141.365 23.0293C142.068 23.4629 142.953 23.6797 144.02 23.6797C144.898 23.6797 145.654 23.498 146.287 23.1348C146.932 22.7598 147.459 22.25 147.869 21.6055C148.291 20.9609 148.602 20.2227 148.801 19.3906C149 18.5469 149.1 17.6504 149.1 16.7012ZM167.732 22.748V12.957C167.732 12.207 167.58 11.5566 167.275 11.0059C166.982 10.4434 166.537 10.0098 165.939 9.70508C165.342 9.40039 164.604 9.24805 163.725 9.24805C162.904 9.24805 162.184 9.38867 161.562 9.66992C160.953 9.95117 160.473 10.3203 160.121 10.7773C159.781 11.2344 159.611 11.7266 159.611 12.2539H156.359C156.359 11.5742 156.535 10.9004 156.887 10.2324C157.238 9.56445 157.742 8.96094 158.398 8.42188C159.066 7.87109 159.863 7.4375 160.789 7.12109C161.727 6.79297 162.77 6.62891 163.918 6.62891C165.301 6.62891 166.52 6.86328 167.574 7.33203C168.641 7.80078 169.473 8.50977 170.07 9.45898C170.68 10.3965 170.984 11.5742 170.984 12.9922V21.8516C170.984 22.4844 171.037 23.1582 171.143 23.873C171.26 24.5879 171.43 25.2031 171.652 25.7188V26H168.26C168.096 25.625 167.967 25.127 167.873 24.5059C167.779 23.873 167.732 23.2871 167.732 22.748ZM168.295 14.4688L168.33 16.7539H165.043C164.117 16.7539 163.291 16.8301 162.564 16.9824C161.838 17.123 161.229 17.3398 160.736 17.6328C160.244 17.9258 159.869 18.2949 159.611 18.7402C159.354 19.1738 159.225 19.6836 159.225 20.2695C159.225 20.8672 159.359 21.4121 159.629 21.9043C159.898 22.3965 160.303 22.7891 160.842 23.082C161.393 23.3633 162.066 23.5039 162.863 23.5039C163.859 23.5039 164.738 23.293 165.5 22.8711C166.262 22.4492 166.865 21.9336 167.311 21.3242C167.768 20.7148 168.014 20.123 168.049 19.5488L169.438 21.1133C169.355 21.6055 169.133 22.1504 168.77 22.748C168.406 23.3457 167.92 23.9199 167.311 24.4707C166.713 25.0098 165.998 25.4609 165.166 25.8242C164.346 26.1758 163.42 26.3516 162.389 26.3516C161.1 26.3516 159.969 26.0996 158.996 25.5957C158.035 25.0918 157.285 24.418 156.746 23.5742C156.219 22.7188 155.955 21.7637 155.955 20.709C155.955 19.6895 156.154 18.793 156.553 18.0195C156.951 17.2344 157.525 16.584 158.275 16.0684C159.025 15.541 159.928 15.1426 160.982 14.873C162.037 14.6035 163.215 14.4688 164.516 14.4688H168.295Z" fill="black"/>
</svg>
