<svg width="48" height="48" viewBox="0 0 48 48" fill="none" xmlns="http://www.w3.org/2000/svg">
<path d="M46.105 11.02C44.554 11.707 42.886 12.165 41.126 12.382C42.915 11.32 44.292 9.626 44.938 7.624C43.264 8.605 41.409 9.326 39.436 9.706C37.86 8.036 35.612 7 33.122 7C28.339 7 24.461 10.843 24.461 15.582C24.461 16.253 24.54 16.906 24.687 17.54C17.491 17.179 11.108 13.758 6.83801 8.566C6.08801 9.835 5.66601 11.32 5.66601 12.888C5.66601 15.867 7.19101 18.49 9.51701 20.035C8.09701 19.992 6.76101 19.597 5.59101 18.963C5.59101 18.989 5.59101 19.027 5.59101 19.064C5.59101 23.227 8.57701 26.694 12.535 27.483C11.812 27.681 11.047 27.791 10.259 27.791C9.70001 27.791 9.15501 27.728 8.62701 27.633C9.72901 31.035 12.926 33.522 16.714 33.596C13.75 35.894 10.017 37.27 5.95801 37.27C5.25701 37.27 4.57101 37.23 3.89301 37.148C7.73001 39.577 12.283 41 17.171 41C33.098 41 41.812 27.921 41.812 16.574C41.812 16.202 41.8 15.832 41.783 15.466C43.483 14.265 44.948 12.751 46.105 11.02Z" fill="url(#paint0_linear_70_49)"/>
<defs>
<linearGradient id="paint0_linear_70_49" x1="10.341" y1="8.312" x2="40.798" y2="38.769" gradientUnits="userSpaceOnUse">
<stop stop-color="#2AA4F4"/>
<stop offset="1" stop-color="#007AD9"/>
</linearGradient>
</defs>
</svg>
